<svg id="Camada_1" data-name="Camada 1" xmlns="http://www.w3.org/2000/svg" viewBox="0 0 240 240"><defs><style>.cls-1{fill:#f8f7f7;}</style></defs><path class="cls-1" d="M105.46,188.44c0-.44.12-.87.12-1.31q0-29.74,0-59.49v-1.39H84.73V101.8h20.86c0-.7,0-1.22,0-1.74,0-6.4-.11-12.81.19-19.2.4-8.65,3.23-16.34,10-22.14a28.67,28.67,0,0,1,16.13-6.59c7.1-.72,14.2-.2,21.29.43.74.07,1.49.11,2.31.17V74.5c-.94,0-1.86,0-2.78,0-4.09.06-8.18,0-12.26.23-6.14.31-9.18,2.92-9.58,9-.39,5.93-.09,11.9-.09,18h24c-1.06,8.22-2.1,16.26-3.16,24.43H130.86c0,.43-.08.73-.08,1v60.69c0,.18,0,.36,0,.53Z"/></svg>