<svg id="Camada_1" data-name="Camada 1" xmlns="http://www.w3.org/2000/svg" viewBox="0 0 240 240"><defs><style>.cls-1{fill:#63ab91;stroke:#63ab91;stroke-miterlimit:10;}</style></defs><path class="cls-1" d="M29.57,115c1.86-1.35,3.77-2.64,5.59-4q41.07-31.57,82.13-63.18c.45-.35.93-.68,1.52-1.12l32.66,25.11V58.3h31.34v2.09c0,11.15,0,22.3,0,33.45a3.66,3.66,0,0,0,1.66,3.3c7.63,5.79,15.2,11.65,22.79,17.49.23.17.44.36.8.66L189.33,139.6l-9.08-6.93v63H129.38V149.56H110.29v46.16H57.52V132.54l-9.28,7.06c-4.41-5.73-8.71-11.35-13.05-16.94-1.84-2.36-3.75-4.68-5.62-7Zm140,70.32a8,8,0,0,0,.09-.79q0-29.44,0-58.88a2.89,2.89,0,0,0-1.09-1.92Q144.28,104.95,120,86.27a1.58,1.58,0,0,0-2.36,0q-24.18,18.67-48.44,37.25a3,3,0,0,0-1.31,2.74q0,28.58,0,57.15v1.85H99.74v-46.1H140v46.14ZM50.19,124.82l68.6-52.76,68.59,52.76,5.84-7.59c-.57-.47-1-.88-1.54-1.26-6-4.64-12-9.32-18.1-13.88a3.32,3.32,0,0,1-1.44-3c.05-9.41,0-18.81,0-28.22V68.9h-10.1V93.18L118.79,59.9,44.31,117.19Z"/><path class="cls-1" d="M169.57,185.27H140V139.13H99.74v46.1H67.89v-1.85q0-28.57,0-57.15a3,3,0,0,1,1.31-2.74q24.25-18.57,48.44-37.25a1.58,1.58,0,0,1,2.36,0q24.27,18.74,48.55,37.41a2.89,2.89,0,0,1,1.09,1.92q.07,29.43,0,58.88A8,8,0,0,1,169.57,185.27Z"/><path class="cls-1" d="M50.19,124.82l-5.88-7.63L118.79,59.9l43.27,33.28V68.9h10.1v1.92c0,9.41,0,18.81,0,28.22a3.32,3.32,0,0,0,1.44,3c6.08,4.56,12.08,9.24,18.1,13.88.5.38,1,.79,1.54,1.26l-5.84,7.59L118.79,72.06Z"/></svg>