<svg id="Camada_1" data-name="Camada 1" xmlns="http://www.w3.org/2000/svg" viewBox="0 0 240 240"><defs><style>.cls-1{fill:#f8f7f7;}</style></defs><path class="cls-1" d="M51.31,149.32V90.94a9.06,9.06,0,0,0,.25-1.15,41.94,41.94,0,0,1,11-24.27c8-8.7,18-13.63,29.84-13.84,18.3-.31,36.6-.22,54.9,0a39.63,39.63,0,0,1,25.6,9.77,42,42,0,0,1,15.53,33.4c0,16.64,0,33.29,0,49.94a43,43,0,0,1-7,24.42,41.82,41.82,0,0,1-24.34,17.86c-2.64.74-5.39,1.1-8.09,1.64H90.69a5.9,5.9,0,0,0-.9-.22,42.83,42.83,0,0,1-36.85-31.09C52.21,154.75,51.85,152,51.31,149.32ZM175.6,120.13c0-8.3,0-16.6,0-24.9a31.15,31.15,0,0,0-1.54-10.13c-4.44-12.69-15.41-20.61-28.86-20.66q-25.31-.09-50.62,0a29.09,29.09,0,0,0-15.31,4c-10,6-15,15-15.07,26.62-.1,16.42,0,32.84,0,49.26a37.48,37.48,0,0,0,.49,6.26c1.7,10,7.23,17.34,16.23,22A29.85,29.85,0,0,0,95,175.82q23.49,0,47,0c2.09,0,4.2,0,6.28-.21a29.1,29.1,0,0,0,20.8-11.22,30.1,30.1,0,0,0,6.54-19.49Z"/><path class="cls-1" d="M119.91,154.41a34.28,34.28,0,1,1,34.26-34.27A34.27,34.27,0,0,1,119.91,154.41Zm0-12.86a21.42,21.42,0,1,0-21.41-21.4A21.58,21.58,0,0,0,119.87,141.55Z"/><path class="cls-1" d="M156.78,87.89a4.62,4.62,0,1,1,4.58-4.65A4.72,4.72,0,0,1,156.78,87.89Z"/></svg>