<svg id="Camada_1" data-name="Camada 1" xmlns="http://www.w3.org/2000/svg" viewBox="0 0 927.13 598.32"><defs><style>.cls-1{fill:#464646;}</style></defs><rect class="cls-1" x="608.15" y="105.69" width="102.95" height="22.66" transform="translate(542.61 776.64) rotate(-90)"/><rect class="cls-1" x="682.28" y="32.56" width="11.34" height="33.98" transform="translate(638.39 737.5) rotate(-90)"/><path class="cls-1" d="M701,55.26c3,1.14,3.89,11.37,4,11.37h11.32a54.84,54.84,0,0,0-.56-7c-.44-2.91-1.18-6.91-2-8.62-1.18-2.36-2.39-4.49-5.08-6.14-2.07-1.26-4.61-1-7.65-1Z"/><path class="cls-1" d="M675,55.19c-2.36,0-3.38,2.54-3.77,5.28a41.28,41.28,0,0,0-.28,6c-4.92,0-5.68,0-11.48,0-3.42,0-9.35,0-11.18,0a67.74,67.74,0,0,1,.51-10.16c.69-5.27,5.8-8.65,7.82-9.54a37.33,37.33,0,0,1,15.22-2.92l3.16,0Z"/><rect class="cls-1" x="659.13" y="111.35" width="102.95" height="11.33" transform="translate(593.59 827.62) rotate(-90)"/><rect class="cls-1" x="681.78" y="88.69" width="11.34" height="34.98" transform="translate(581.27 793.63) rotate(-90)"/><rect class="cls-1" x="166.61" y="105.42" width="103.48" height="22.66" transform="translate(101.6 335.1) rotate(-90)"/><rect class="cls-1" x="241" y="32.56" width="11.34" height="33.98" transform="translate(197.12 296.23) rotate(-90)"/><path class="cls-1" d="M259.68,55.26c3,1.14,3.88,11.37,4,11.37H275a55.89,55.89,0,0,0-.57-7c-.44-2.91-1.17-6.91-2-8.62-1.18-2.36-2.38-4.49-5.08-6.14-2.07-1.26-4.6-1-7.65-1Z"/><path class="cls-1" d="M233.75,55.19c-2.37,0-3.38,2.54-3.78,5.28a40.69,40.69,0,0,0-.27,6c-4.93,0-5.68,0-11.48,0-3.43,0-9.35,0-11.18,0a67.46,67.46,0,0,1,.5-10.16c.7-5.27,5.81-8.65,7.83-9.54a37.3,37.3,0,0,1,15.22-2.92l3.16,0Z"/><rect class="cls-1" x="234.84" y="94.37" width="11.34" height="23.66" transform="translate(134.31 346.7) rotate(-90)"/><rect class="cls-1" x="241" y="145.83" width="11.34" height="33.98" transform="translate(409.49 -83.85) rotate(90)"/><path class="cls-1" d="M259.68,157.12c3-1.14,3.88-11.38,4-11.38H275a56.12,56.12,0,0,1-.57,7c-.44,2.91-1.17,6.91-2,8.62-1.18,2.36-2.38,4.48-5.08,6.13-2.07,1.27-4.6,1-7.65,1Z"/><rect class="cls-1" x="695.03" y="84.03" width="102.95" height="22.66" transform="translate(651.15 841.87) rotate(-90)"/><rect class="cls-1" x="769.16" y="145.83" width="11.34" height="33.98" transform="translate(937.65 -612.01) rotate(90)"/><path class="cls-1" d="M787.83,157.12c3-1.14,3.89-11.38,4-11.38h11.32a55.05,55.05,0,0,1-.56,7c-.44,2.91-1.18,6.91-2,8.62-1.18,2.36-2.39,4.48-5.08,6.13-2.07,1.27-4.61,1-7.65,1Z"/><path class="cls-1" d="M761.9,157.19c-2.36,0-3.38-2.54-3.77-5.28a41.28,41.28,0,0,1-.28-6c-4.92,0-5.68,0-11.48,0l-11.18,0A67.86,67.86,0,0,0,735.7,156c.69,5.26,5.8,8.64,7.82,9.54a37.15,37.15,0,0,0,15.22,2.91l3.16,0Z"/><rect class="cls-1" x="495.24" y="100.52" width="113.28" height="22.66" transform="translate(440.03 663.73) rotate(-90)"/><rect class="cls-1" x="557.54" y="94.86" width="124.61" height="22.66" transform="translate(513.66 726.03) rotate(-90)"/><polygon class="cls-1" points="574.53 66.54 563.21 66.54 540.55 55.21 540.55 43.88 563.21 43.9 574.53 66.54"/><polygon class="cls-1" points="597.19 145.84 608.52 145.84 631.17 157.16 631.17 168.49 608.52 168.47 597.19 145.84"/><polygon class="cls-1" points="573.15 63.4 609.76 145.52 599.45 150.19 561.41 66.47 573.15 63.4"/><rect class="cls-1" x="428.29" y="94.8" width="81.72" height="22.66" transform="translate(363.03 575.27) rotate(-90)"/><rect class="cls-1" x="491.8" y="32.56" width="11.34" height="33.98" transform="translate(447.91 547.02) rotate(-90)"/><path class="cls-1" d="M510.48,55.26c3,1.14,3.88,11.37,4,11.37h11.33a55.89,55.89,0,0,0-.57-7c-.44-2.91-1.18-6.91-2-8.62-1.18-2.36-2.39-4.49-5.08-6.14-2.07-1.26-4.61-1-7.65-1Z"/><path class="cls-1" d="M484.55,55.19c-2.37,0-3.39,2.54-3.78,5.28a42.85,42.85,0,0,0-.28,6c-4.92,0-5.68,0-11.47,0-3.43,0-9.36,0-11.19,0a69.12,69.12,0,0,1,.51-10.16c.7-5.27,5.81-8.65,7.83-9.54a37.27,37.27,0,0,1,15.22-2.92l3.16,0Z"/><rect class="cls-1" x="491.8" y="145.83" width="11.34" height="33.98" transform="translate(660.29 -334.65) rotate(90)"/><path class="cls-1" d="M510.48,157.12c3-1.14,3.88-11.38,4-11.38h11.33a56.12,56.12,0,0,1-.57,7c-.44,2.91-1.18,6.91-2,8.62-1.18,2.36-2.39,4.48-5.08,6.13-2.07,1.27-4.61,1-7.65,1Z"/><path class="cls-1" d="M484.55,157.19c-2.37,0-3.39-2.54-3.78-5.28a42.85,42.85,0,0,1-.28-6c-4.92,0-5.68,0-11.47,0l-11.19,0a69.24,69.24,0,0,0,.51,10.17c.7,5.26,5.81,8.64,7.83,9.54a37.09,37.09,0,0,0,15.22,2.91l3.16,0Z"/><rect class="cls-1" x="478.93" y="101.41" width="82.36" height="11.31" transform="translate(413.03 627.18) rotate(-90)"/><rect class="cls-1" x="87.11" y="106.19" width="101.95" height="22.66" transform="translate(20.57 255.6) rotate(-90)"/><rect class="cls-1" x="160.73" y="32.56" width="11.34" height="33.98" transform="translate(116.85 215.96) rotate(-90)"/><path class="cls-1" d="M179.41,55.26c3,1.14,3.88,12.37,4,12.37h11.33a66.5,66.5,0,0,0-.57-8c-.44-2.91-1.17-6.91-2-8.62-1.18-2.36-2.38-4.49-5.08-6.14-2.07-1.26-4.6-1-7.65-1Z"/><path class="cls-1" d="M153.44,55.45c-2.37,0-3.4,2.61-3.8,5.41a46.26,46.26,0,0,0-.3,6.19c-4.92,0-5.68,0-11.48,0l-11.19.06a72.16,72.16,0,0,1,.55-10.4c.71-5.39,5.84-8.87,7.86-9.79a36.57,36.57,0,0,1,15.24-3h3.16Z"/><rect class="cls-1" x="172.07" y="77.87" width="33.98" height="11.33" transform="translate(105.53 272.59) rotate(-90)"/><rect class="cls-1" x="155.07" y="94.87" width="11.34" height="22.66" transform="translate(54.54 266.93) rotate(-90)"/><path class="cls-1" d="M183.42,96.62c-1.16,3-11.4,3.8-11.4,3.9,0,4.55,0,6.4-.08,11.33a57.35,57.35,0,0,0,7-.52c2.91-.42,6.91-1.13,8.63-2,2.37-1.17,4.5-2.36,6.17-5,1.28-2.06,1-4.6,1-7.64Z"/><rect class="cls-1" x="249.33" y="105.54" width="102.95" height="22.66" transform="translate(183.93 417.67) rotate(-90)"/><rect class="cls-1" x="323.45" y="32.42" width="11.34" height="33.98" transform="translate(279.71 378.53) rotate(-90)"/><path class="cls-1" d="M342.13,55.11c3,1.14,3.88,11.38,4,11.38h11.33a56.12,56.12,0,0,0-.57-7c-.44-2.91-1.17-6.91-2-8.62-1.18-2.36-2.38-4.48-5.08-6.13-2.07-1.26-4.6-1-7.65-1Z"/><path class="cls-1" d="M316.2,55c-2.37,0-3.39,2.54-3.78,5.28a42.85,42.85,0,0,0-.28,6.05c-4.92,0-5.68,0-11.47,0l-11.18,0a67.63,67.63,0,0,1,.5-10.17c.7-5.26,5.81-8.64,7.83-9.53A37,37,0,0,1,313,43.77l3.16,0Z"/><rect class="cls-1" x="333.78" y="76.72" width="35.98" height="11.33" transform="translate(269.39 434.16) rotate(-90)"/><rect class="cls-1" x="317.79" y="94.72" width="11.34" height="22.66" transform="translate(217.41 429.51) rotate(-90)"/><path class="cls-1" d="M346.26,96.47c-1.16,3-11.4,3.81-11.4,3.91,0,4.55,0,6.4-.08,11.32a53.08,53.08,0,0,0,7-.52c2.91-.42,6.92-1.12,8.64-2,2.36-1.16,4.5-2.35,6.16-5,1.28-2.06,1-4.6,1-7.65Z"/><rect class="cls-1" x="323.61" y="134.49" width="56.67" height="11.33" transform="translate(211.78 492.1) rotate(-90)"/><path class="cls-1" d="M346.26,115.68c-1.16-3-11.4-3.8-11.4-3.91,0-4.54,0-6.4-.08-11.32a55.13,55.13,0,0,1,7,.52c2.91.42,6.92,1.13,8.64,2,2.36,1.16,4.5,2.36,6.16,5,1.28,2.06,1,4.6,1,7.64Z"/><polygon class="cls-1" points="373.18 65.06 373.05 92.1 395.7 92.1 395.83 65.06 373.18 65.06"/><rect class="cls-1" x="407.15" y="32.35" width="11.34" height="33.98" transform="translate(363.48 462.17) rotate(-90)"/><path class="cls-1" d="M425.83,55.05c3,1.14,3.88,11.37,4,11.37h11.33a55.89,55.89,0,0,0-.57-7c-.44-2.91-1.17-6.91-2-8.62-1.18-2.36-2.38-4.49-5.08-6.13-2.06-1.27-4.6-1-7.65-1Z"/><path class="cls-1" d="M399.9,55c-2.37,0-3.38,2.54-3.78,5.28a42.22,42.22,0,0,0-.27,6.05c-4.93,0-5.68,0-11.48,0-3.43,0-9.35,0-11.18,0a67.51,67.51,0,0,1,.5-10.16c.7-5.26,5.81-8.64,7.83-9.54a37.12,37.12,0,0,1,15.22-2.91l3.16,0Z"/><rect class="cls-1" x="401.46" y="94.72" width="11.34" height="22.66" transform="translate(301.08 513.18) rotate(-90)"/><rect class="cls-1" x="418.55" y="123.07" width="34.02" height="11.33" transform="translate(306.82 564.29) rotate(-90)"/><path class="cls-1" d="M429.8,115.62c-1.16-3-11.4-3.81-11.41-3.91,0-4.55,0-6.4-.07-11.33a57.35,57.35,0,0,1,7,.52c2.91.42,6.91,1.13,8.63,2,2.37,1.17,4.5,2.36,6.17,5,1.28,2.06,1,4.6,1,7.65Z"/><path class="cls-1" d="M399.82,100.42c-2.37,0-3.39-2.54-3.78-5.28a42.85,42.85,0,0,1-.28-6c-4.92,0-5.68,0-11.47,0l-11.19,0a69.24,69.24,0,0,0,.51,10.17c.7,5.26,5.81,8.64,7.83,9.54a37.09,37.09,0,0,0,15.22,2.91l3.16,0Z"/><path class="cls-1" d="M429.87,141.69c0,2.37-2.53,3.39-5.27,3.78a43.5,43.5,0,0,1-6.05.29c0,4.92,0,5.68,0,11.47,0,3.43,0,9.35,0,11.19a68,68,0,0,0,10.16-.52c5.26-.7,8.64-5.82,9.53-7.84a37.11,37.11,0,0,0,2.9-15.22l0-3.16Z"/><rect class="cls-1" x="396.25" y="145.2" width="22.75" height="23.83" transform="translate(564.74 -250.51) rotate(90)"/><path class="cls-1" d="M384.48,141.69c0,2.37,2.54,3.39,5.28,3.78a43.5,43.5,0,0,0,6.05.29c0,4.92,0,5.68,0,11.47,0,3.43,0,9.35,0,11.19a68,68,0,0,1-10.16-.52c-5.27-.7-8.64-5.82-9.53-7.84a37.11,37.11,0,0,1-2.9-15.22l0-3.16Z"/><rect class="cls-1" x="744.43" y="468.26" width="133.47" height="29.44" transform="translate(328.19 1294.15) rotate(-90)"/><rect class="cls-1" x="840.6" y="373.1" width="14.74" height="44.16" transform="translate(452.8 1243.14) rotate(-90)"/><path class="cls-1" d="M864.87,402.58c3.89,1.48,5,14.78,5.18,14.78h14.71a71.23,71.23,0,0,0-.73-9.07c-.57-3.78-1.53-9-2.64-11.2-1.53-3.07-3.1-5.83-6.6-8-2.69-1.65-6-1.26-9.94-1.26Z"/><path class="cls-1" d="M831.18,402.49c-3.08,0-4.4,3.3-4.91,6.86a54,54,0,0,0-.36,7.86c-6.4,0-7.38,0-14.91,0l-14.53,0a87.91,87.91,0,0,1,.66-13.2c.9-6.84,7.54-11.23,10.17-12.4a48.14,48.14,0,0,1,19.77-3.78l4.11,0Z"/><rect class="cls-1" x="810.67" y="475.62" width="133.47" height="14.72" transform="translate(394.43 1360.39) rotate(-90)"/><rect class="cls-1" x="839.6" y="444.67" width="14.74" height="48.16" transform="translate(378.22 1315.72) rotate(-90)"/><rect class="cls-1" x="492.45" y="468.26" width="133.47" height="29.44" transform="translate(76.2 1042.16) rotate(-90)"/><rect class="cls-1" x="588.61" y="373.1" width="14.74" height="44.16" transform="translate(200.81 991.15) rotate(-90)"/><path class="cls-1" d="M612.88,402.58c3.89,1.48,5,14.78,5.18,14.78h14.71a71.23,71.23,0,0,0-.73-9.07c-.57-3.78-1.53-9-2.64-11.2-1.53-3.07-3.1-5.83-6.6-8-2.69-1.65-6-1.26-9.94-1.26Z"/><path class="cls-1" d="M579.19,402.49c-3.08,0-4.4,3.3-4.91,6.86a55.59,55.59,0,0,0-.36,7.86c-6.4,0-7.38,0-14.91,0l-14.53,0a87.91,87.91,0,0,1,.66-13.2c.9-6.84,7.54-11.23,10.17-12.4a48.14,48.14,0,0,1,19.77-3.78l4.11,0Z"/><rect class="cls-1" x="558.18" y="475.12" width="134.47" height="14.72" transform="translate(142.94 1107.9) rotate(-90)"/><rect class="cls-1" x="589.11" y="445.17" width="14.74" height="47.16" transform="translate(127.73 1065.23) rotate(-90)"/><rect class="cls-1" x="161.06" y="468.26" width="133.47" height="29.44" transform="translate(-255.19 710.78) rotate(-90)"/><rect class="cls-1" x="257.23" y="373.1" width="14.74" height="44.16" transform="translate(-130.58 659.77) rotate(-90)"/><path class="cls-1" d="M281.5,402.58c3.89,1.48,5,14.78,5.17,14.78h14.72a72.28,72.28,0,0,0-.74-9.07c-.57-3.78-1.52-9-2.64-11.2-1.53-3.07-3.1-5.83-6.6-8-2.68-1.65-6-1.26-9.94-1.26Z"/><path class="cls-1" d="M247.8,402.49c-3.08,0-4.4,3.3-4.91,6.86a55.59,55.59,0,0,0-.36,7.86c-6.39,0-7.38,0-14.91,0l-14.53,0a87.91,87.91,0,0,1,.66-13.2c.91-6.84,7.54-11.23,10.17-12.4a48.18,48.18,0,0,1,19.78-3.78l4.1,0Z"/><rect class="cls-1" x="227.3" y="475.62" width="133.47" height="14.72" transform="translate(-188.95 777.01) rotate(-90)"/><rect class="cls-1" x="257.73" y="445.17" width="14.74" height="47.16" transform="translate(-203.66 733.85) rotate(-90)"/><rect class="cls-1" x="-7.47" y="467.76" width="134.47" height="29.44" transform="translate(-422.72 542.25) rotate(-90)"/><rect class="cls-1" x="74.48" y="387.81" width="14.74" height="14.72" transform="translate(-313.33 477.02) rotate(-90)"/><path class="cls-1" d="M79.77,402.49c-3.08,0-4.4,3.3-4.91,6.86a55.59,55.59,0,0,0-.36,7.86c-6.39,0-7.38,0-14.91,0l-14.53,0a87.91,87.91,0,0,1,.66-13.2c.9-6.84,7.54-11.23,10.17-12.4a48.17,48.17,0,0,1,19.77-3.78l4.11,0Z"/><rect class="cls-1" x="110.78" y="468.26" width="133.47" height="29.44" transform="translate(-305.46 660.5) rotate(-90)"/><rect class="cls-1" x="148.07" y="387.81" width="14.74" height="14.72" transform="translate(-239.73 550.61) rotate(-90)"/><path class="cls-1" d="M157.51,402.49c3.08,0,4.4,3.3,4.91,6.86a54,54,0,0,1,.36,7.86c6.4,0,7.38,0,14.91,0l14.53,0a87.91,87.91,0,0,0-.66-13.2c-.9-6.84-7.54-11.23-10.17-12.4a48.14,48.14,0,0,0-19.77-3.78l-4.11,0Z"/><polygon class="cls-1" points="88.2 387.81 88.2 402.52 103.92 431.96 119.64 431.96 119.62 402.52 88.2 387.81"/><polygon class="cls-1" points="149.08 387.81 149.08 402.52 133.36 431.96 118.64 431.96 118.66 402.52 149.08 387.81"/><rect class="cls-1" x="110.77" y="424.1" width="15.74" height="29.44" transform="translate(-320.17 557.46) rotate(-90)"/><rect class="cls-1" x="596.56" y="461.4" width="147.19" height="29.44" transform="translate(194.03 1146.28) rotate(-90)"/><rect class="cls-1" x="677.51" y="454.04" width="161.91" height="29.44" transform="translate(289.71 1227.23) rotate(-90)"/><polygon class="cls-1" points="699.59 417.25 684.87 417.25 655.43 402.52 655.43 387.81 684.87 387.83 699.59 417.25"/><polygon class="cls-1" points="729.03 520.28 743.75 520.28 773.19 535 773.19 549.72 743.75 549.7 729.03 520.28"/><polygon class="cls-1" points="697.94 413.62 745.37 519.87 731.96 525.94 681.43 414.13 697.94 413.62"/><rect class="cls-1" x="271.21" y="468.08" width="133.47" height="29.44" transform="translate(-144.85 820.74) rotate(-90)"/><rect class="cls-1" x="367.37" y="372.91" width="14.74" height="44.16" transform="translate(-20.25 769.73) rotate(-90)"/><path class="cls-1" d="M391.64,402.4c3.89,1.48,5.05,14.78,5.18,14.78h14.71a71.45,71.45,0,0,0-.73-9.08c-.57-3.78-1.53-9-2.64-11.2-1.53-3.07-3.1-5.83-6.6-8-2.69-1.64-6-1.25-9.94-1.25Z"/><path class="cls-1" d="M358,402.31c-3.08,0-4.4,3.3-4.91,6.86a55.55,55.55,0,0,0-.36,7.86c-6.39,0-7.38,0-14.91,0-4.45,0-12.15,0-14.53,0a88,88,0,0,1,.66-13.21c.9-6.84,7.54-11.23,10.17-12.39a48.15,48.15,0,0,1,19.77-3.79l4.11,0Z"/><rect class="cls-1" x="382.1" y="430.78" width="44.16" height="14.72" transform="translate(-33.96 842.32) rotate(-90)"/><rect class="cls-1" x="360.01" y="452.86" width="14.74" height="31.44" transform="translate(-101.2 835.97) rotate(-90)"/><path class="cls-1" d="M397,456.14c-1.5,3.88-14.81,4.94-14.81,5.07,0,5.92-.05,8.32-.1,14.72a70.5,70.5,0,0,0,9.08-.68c3.78-.54,9-1.46,11.22-2.56,3.08-1.51,5.85-3.06,8-6.54,1.66-2.68,1.3-6,1.32-9.93Z"/><rect class="cls-1" x="367.58" y="505.54" width="73.63" height="14.72" transform="translate(-108.51 917.29) rotate(-90)"/><path class="cls-1" d="M397,481.1c-1.5-3.88-14.81-5-14.81-5.08,0-5.91-.05-8.31-.1-14.71a71.56,71.56,0,0,1,9.08.67c3.78.55,9,1.47,11.22,2.56,3.08,1.51,5.85,3.06,8,6.55,1.66,2.68,1.3,6,1.32,9.93Z"/><rect class="cls-1" x="395.41" y="453.95" width="162.1" height="29.44" transform="translate(7.79 945.13) rotate(-90)"/><rect class="cls-1" x="497.52" y="380.45" width="14.74" height="29.44" transform="translate(109.71 900.06) rotate(-90)"/><rect class="cls-1" x="439.15" y="379.95" width="14.74" height="30.45" transform="translate(51.34 841.69) rotate(-90)"/><rect class="cls-1" x="497.52" y="527.63" width="14.74" height="29.44" transform="translate(1047.24 37.47) rotate(90)"/><rect class="cls-1" x="439.15" y="527.13" width="14.74" height="30.45" transform="translate(988.86 95.84) rotate(90)"/><rect class="cls-1" x="696.3" y="276.32" width="103.95" height="22.66" transform="translate(460.63 1035.92) rotate(-90)"/><rect class="cls-1" x="770.92" y="203.69" width="11.34" height="33.98" transform="translate(555.91 997.28) rotate(-90)"/><path class="cls-1" d="M789.6,226.39c3,1.14,3.88,11.37,4,11.37h11.33a55.89,55.89,0,0,0-.57-7c-.44-2.91-1.17-6.91-2-8.62-1.18-2.36-2.38-4.49-5.08-6.14-2.07-1.26-4.6-1-7.65-1Z"/><path class="cls-1" d="M763.67,226.32c-2.37,0-3.39,2.54-3.78,5.28a40.69,40.69,0,0,0-.27,6.05c-4.93,0-5.69,0-11.48,0-3.43,0-9.35,0-11.18,0a67.51,67.51,0,0,1,.5-10.16c.7-5.26,5.81-8.65,7.83-9.54a37.12,37.12,0,0,1,15.22-2.91l3.16,0Z"/><rect class="cls-1" x="782.26" y="249" width="33.98" height="11.33" transform="translate(544.59 1053.91) rotate(-90)"/><rect class="cls-1" x="764.26" y="265" width="11.34" height="24.66" transform="translate(492.6 1047.25) rotate(-90)"/><path class="cls-1" d="M793.73,267.75c-1.16,3-11.4,3.8-11.4,3.9,0,4.55,0,6.4-.07,11.33a57.24,57.24,0,0,0,7-.52c2.92-.42,6.92-1.13,8.64-2,2.37-1.17,4.5-2.36,6.16-5,1.28-2.06,1-4.6,1-7.64Z"/><rect class="cls-1" x="770.92" y="316.96" width="11.34" height="33.98" transform="translate(1110.54 -442.64) rotate(90)"/><path class="cls-1" d="M789.6,328.25c3-1.14,3.88-11.38,4-11.38h11.33a56.12,56.12,0,0,1-.57,7c-.44,2.91-1.17,6.91-2,8.62-1.18,2.36-2.38,4.49-5.08,6.13-2.07,1.27-4.6,1-7.65,1Z"/><rect class="cls-1" x="781.76" y="294.81" width="34.98" height="11.33" transform="translate(1099.72 -498.77) rotate(90)"/><path class="cls-1" d="M793.73,286.89c-1.16-3-11.4-3.81-11.4-3.91,0-4.55,0-6.4-.07-11.32a55,55,0,0,1,7,.52c2.92.42,6.92,1.12,8.64,2,2.37,1.16,4.5,2.35,6.16,5,1.28,2.06,1,4.6,1,7.64Z"/><rect class="cls-1" x="207.11" y="276.82" width="102.95" height="22.66" transform="translate(-29.56 546.73) rotate(-90)"/><rect class="cls-1" x="281.23" y="203.69" width="11.34" height="33.98" transform="translate(66.22 507.59) rotate(-90)"/><path class="cls-1" d="M299.91,226.39c3,1.14,3.88,11.37,4,11.37h11.33a55.89,55.89,0,0,0-.57-7c-.44-2.91-1.17-6.91-2-8.62-1.18-2.36-2.38-4.49-5.08-6.14-2.07-1.26-4.6-1-7.65-1Z"/><path class="cls-1" d="M274,226.32c-2.37,0-3.39,2.54-3.78,5.28a42.85,42.85,0,0,0-.28,6.05c-4.92,0-5.68,0-11.47,0-3.43,0-9.35,0-11.18,0a67.51,67.51,0,0,1,.5-10.16c.7-5.26,5.81-8.65,7.83-9.54a37.12,37.12,0,0,1,15.22-2.91l3.16,0Z"/><rect class="cls-1" x="292.57" y="249" width="33.98" height="11.33" transform="translate(54.89 564.22) rotate(-90)"/><rect class="cls-1" x="275.57" y="266" width="11.34" height="22.66" transform="translate(3.91 558.56) rotate(-90)"/><path class="cls-1" d="M304,267.75c-1.16,3-11.4,3.8-11.4,3.9,0,4.55,0,6.4-.07,11.33a57.24,57.24,0,0,0,7-.52c2.92-.42,6.92-1.13,8.64-2,2.36-1.17,4.5-2.36,6.16-5,1.28-2.06,1-4.6,1-7.64Z"/><rect class="cls-1" x="280.73" y="316.46" width="11.34" height="34.98" transform="translate(620.35 47.55) rotate(90)"/><path class="cls-1" d="M299.91,328.25c3-1.14,3.88-11.38,4-11.38h11.33a56.12,56.12,0,0,1-.57,7c-.44,2.91-1.17,6.91-2,8.62-1.18,2.36-2.38,4.49-5.08,6.13-2.07,1.27-4.6,1-7.65,1Z"/><rect class="cls-1" x="292.07" y="294.81" width="34.98" height="11.33" transform="translate(610.03 -9.08) rotate(90)"/><path class="cls-1" d="M304,286.89c-1.16-3-11.4-3.81-11.4-3.91,0-4.55,0-6.4-.07-11.32a55,55,0,0,1,7,.52c2.92.42,6.92,1.12,8.64,2,2.36,1.16,4.5,2.35,6.16,5,1.28,2.06,1,4.6,1,7.64Z"/><rect class="cls-1" x="564.72" y="276.32" width="103.95" height="22.66" transform="translate(329.04 904.34) rotate(-90)"/><rect class="cls-1" x="639.34" y="203.69" width="11.34" height="33.98" transform="translate(424.32 865.7) rotate(-90)"/><path class="cls-1" d="M658,226.39c3,1.14,3.88,11.37,4,11.37h11.33a55.89,55.89,0,0,0-.57-7c-.44-2.91-1.17-6.91-2-8.62-1.18-2.36-2.39-4.49-5.08-6.14-2.07-1.26-4.6-1-7.65-1Z"/><path class="cls-1" d="M632.09,226.32c-2.37,0-3.39,2.54-3.78,5.28a42.85,42.85,0,0,0-.28,6.05c-4.92,0-5.68,0-11.47,0-3.43,0-9.35,0-11.19,0a69.17,69.17,0,0,1,.51-10.16c.7-5.26,5.81-8.65,7.83-9.54a37.12,37.12,0,0,1,15.22-2.91l3.16,0Z"/><rect class="cls-1" x="632.68" y="265" width="11.34" height="24.66" transform="translate(361.02 915.67) rotate(-90)"/><rect class="cls-1" x="638.34" y="315.96" width="11.34" height="35.98" transform="translate(977.96 -310.06) rotate(90)"/><path class="cls-1" d="M658,328.25c3-1.14,3.88-11.38,4-11.38h11.33a56.12,56.12,0,0,1-.57,7c-.44,2.91-1.17,6.91-2,8.62-1.18,2.36-2.39,4.49-5.08,6.13-2.07,1.27-4.6,1-7.65,1Z"/><rect class="cls-1" x="121.54" y="276.82" width="102.95" height="22.66" transform="translate(-115.13 461.17) rotate(-90)"/><rect class="cls-1" x="195.67" y="203.69" width="11.34" height="33.98" transform="translate(-19.35 422.02) rotate(-90)"/><path class="cls-1" d="M214.35,226.39c3,1.14,3.88,11.37,4,11.37h11.33a55.89,55.89,0,0,0-.57-7c-.44-2.91-1.18-6.91-2-8.62-1.18-2.36-2.39-4.49-5.08-6.14-2.07-1.26-4.61-1-7.65-1Z"/><path class="cls-1" d="M188.42,226.32c-2.37,0-3.39,2.54-3.78,5.28a42.85,42.85,0,0,0-.28,6.05c-4.92,0-5.68,0-11.47,0-3.43,0-9.36,0-11.19,0a69.17,69.17,0,0,1,.51-10.16c.7-5.26,5.81-8.65,7.83-9.54a37.09,37.09,0,0,1,15.22-2.91l3.16,0Z"/><rect class="cls-1" x="189.5" y="265.5" width="11.34" height="23.66" transform="translate(-82.15 472.5) rotate(-90)"/><rect class="cls-1" x="195.17" y="316.46" width="11.34" height="34.98" transform="translate(534.79 133.11) rotate(90)"/><path class="cls-1" d="M214.35,328.25c3-1.14,3.88-11.38,4-11.38h11.33a56.12,56.12,0,0,1-.57,7c-.44,2.91-1.18,6.91-2,8.62-1.18,2.36-2.39,4.49-5.08,6.13-2.07,1.27-4.61,1-7.65,1Z"/><rect class="cls-1" x="331.63" y="237.49" width="26.71" height="22.66" transform="translate(96.16 593.8) rotate(-90)"/><rect class="cls-1" x="367.63" y="203.49" width="11.34" height="33.98" transform="translate(152.82 593.78) rotate(-90)"/><path class="cls-1" d="M386.31,226.18c3,1.14,3.88,11.37,4,11.37h11.33a55.89,55.89,0,0,0-.57-7c-.44-2.91-1.17-6.91-2-8.62-1.18-2.36-2.39-4.49-5.08-6.13-2.07-1.27-4.6-1-7.65-1Z"/><path class="cls-1" d="M360.38,226.11c-2.37,0-3.39,2.54-3.78,5.28a42.85,42.85,0,0,0-.28,6.05c-4.92,0-5.68,0-11.47,0H333.66a69.17,69.17,0,0,1,.51-10.16c.7-5.26,5.81-8.64,7.83-9.54a37.12,37.12,0,0,1,15.22-2.91l3.16,0Z"/><rect class="cls-1" x="362.43" y="265.35" width="11.34" height="23.66" transform="translate(90.92 645.29) rotate(-90)"/><rect class="cls-1" x="379.02" y="294.2" width="34.02" height="11.33" transform="translate(96.17 695.9) rotate(-90)"/><path class="cls-1" d="M390.27,286.75c-1.16-3-11.4-3.81-11.4-3.91,0-4.55,0-6.4-.08-11.32a53.08,53.08,0,0,1,7,.52c2.91.41,6.92,1.12,8.64,2,2.36,1.16,4.5,2.35,6.16,5,1.28,2.06,1,4.6,1,7.65Z"/><path class="cls-1" d="M360.29,271.55c-2.37,0-3.38-2.54-3.77-5.28a41.28,41.28,0,0,1-.28-6c-4.92,0-5.68,0-11.48,0l-11.18,0a67.86,67.86,0,0,0,.51,10.17c.69,5.26,5.8,8.64,7.82,9.54a37.12,37.12,0,0,0,15.22,2.91l3.16,0Z"/><path class="cls-1" d="M390.35,312.82c0,2.37-2.54,3.39-5.27,3.78a41.92,41.92,0,0,1-6.05.29c0,4.92,0,5.68,0,11.47,0,3.43,0,9.36,0,11.19A68.07,68.07,0,0,0,389.2,339c5.26-.7,8.64-5.82,9.53-7.84a37.11,37.11,0,0,0,2.9-15.22l0-3.16Z"/><rect class="cls-1" x="356.3" y="315.91" width="22.75" height="24.68" transform="translate(695.92 -39.43) rotate(90)"/><path class="cls-1" d="M345,312.82c0,2.37,2.54,3.39,5.27,3.78a42,42,0,0,0,6.06.29c0,4.92,0,5.68,0,11.47,0,3.43,0,9.36,0,11.19a68.07,68.07,0,0,1-10.16-.52c-5.26-.7-8.64-5.82-9.53-7.84a37.27,37.27,0,0,1-2.9-15.22l0-3.16Z"/><rect class="cls-1" x="481.83" y="265.96" width="124.67" height="22.66" transform="translate(266.88 821.45) rotate(-90)"/><rect class="cls-1" x="560.69" y="208.78" width="11.34" height="23.68" transform="translate(345.74 786.98) rotate(-90)"/><path class="cls-1" d="M574.23,226.32c3,1.14,3.88,11.38,4,11.38h11.32a56.12,56.12,0,0,0-.57-7c-.43-2.91-1.17-6.91-2-8.62-1.18-2.36-2.39-4.48-5.08-6.13-2.07-1.26-4.61-1-7.65-1Z"/><rect class="cls-1" x="516.33" y="208.78" width="11.34" height="23.68" transform="translate(301.38 742.62) rotate(-90)"/><path class="cls-1" d="M514.13,226.26c-3,1.14-3.88,11.37-4,11.37H498.82a55.89,55.89,0,0,1,.57-7c.44-2.91,1.17-6.91,2-8.62,1.18-2.36,2.38-4.49,5.08-6.14,2.07-1.26,4.6-1,7.65-1Z"/><rect class="cls-1" x="816.57" y="293.19" width="70.05" height="22.82" transform="translate(546.99 1156.19) rotate(-90)"/><rect class="cls-1" x="861.99" y="227.23" width="36.05" height="11.33" transform="translate(1112.91 -647.12) rotate(90)"/><rect class="cls-1" x="810.95" y="221.55" width="36.05" height="22.68" transform="translate(1061.87 -596.08) rotate(90)"/><rect class="cls-1" x="851.66" y="248.89" width="11.34" height="34.02" transform="translate(1123.23 -591.42) rotate(90)"/><path class="cls-1" d="M870.37,260.22c3-1.14,3.88-11.38,4-11.38h11.33a56.12,56.12,0,0,1-.57,7c-.44,2.91-1.17,6.91-2,8.62-1.18,2.36-2.39,4.48-5.08,6.13-2.07,1.26-4.6,1-7.65,1Z"/><path class="cls-1" d="M844.36,260.24c-2.37,0-3.39-2.54-3.78-5.28a40.69,40.69,0,0,1-.27-6.05c-4.93,0-5.68,0-11.48,0l-11.18,0a67.58,67.58,0,0,0,.5,10.17c.7,5.26,5.81,8.64,7.83,9.54a37.12,37.12,0,0,0,15.22,2.91l3.16,0Z"/><rect class="cls-1" x="72.48" y="322.59" width="11.34" height="22.73" transform="translate(412.1 255.8) rotate(90)"/><path class="cls-1" d="M85.47,328.25c3-1.14,3.88-11.38,4-11.38h11.33a56.12,56.12,0,0,1-.57,7c-.44,2.91-1.18,6.91-2,8.62-1.18,2.36-2.39,4.49-5.08,6.13-2.07,1.27-4.61,1-7.65,1Z"/><path class="cls-1" d="M70.86,328.31c-2.37,0-3.39-2.54-3.78-5.28a42.89,42.89,0,0,1-.28-6c-4.92,0-5.68,0-11.47,0l-11.19,0a69.12,69.12,0,0,0,.51,10.16c.7,5.27,5.81,8.65,7.83,9.54a37.13,37.13,0,0,0,15.22,2.92l3.16,0Z"/><rect class="cls-1" x="3.92" y="255.08" width="103.08" height="22.66" transform="translate(321.87 210.95) rotate(90)"/><rect class="cls-1" x="77.75" y="283.44" width="46.38" height="22.66" transform="translate(395.71 193.82) rotate(90)"/><rect class="cls-1" x="117.9" y="322.65" width="11.34" height="22.61" transform="translate(457.53 210.38) rotate(90)"/><path class="cls-1" d="M130.91,328.25c3-1.14,3.88-11.38,4-11.38h11.33a56.12,56.12,0,0,1-.57,7c-.44,2.91-1.17,6.91-2,8.62-1.18,2.36-2.39,4.49-5.08,6.13-2.07,1.27-4.6,1-7.65,1Z"/><path class="cls-1" d="M116.34,328.31c-2.37,0-3.39-2.54-3.78-5.28a42.89,42.89,0,0,1-.28-6c-4.92,0-5.68,0-11.47,0l-11.18,0a67.46,67.46,0,0,0,.5,10.16c.7,5.27,5.81,8.65,7.83,9.54a37.13,37.13,0,0,0,15.22,2.92l3.16,0Z"/><rect class="cls-1" x="89.02" y="260.75" width="103.08" height="11.33" transform="translate(406.97 125.86) rotate(90)"/><rect class="cls-1" x="391.88" y="265.92" width="125.13" height="22.73" transform="translate(177.16 731.72) rotate(-90)"/><rect class="cls-1" x="470.7" y="209.18" width="11.38" height="22.73" transform="translate(255.84 696.93) rotate(-90)"/><rect class="cls-1" x="425.64" y="208.79" width="11.38" height="23.51" transform="translate(210.78 651.87) rotate(-90)"/><rect class="cls-1" x="470.7" y="322.8" width="11.38" height="22.73" transform="translate(810.55 -142.23) rotate(90)"/><rect class="cls-1" x="425.64" y="322.41" width="11.38" height="23.51" transform="translate(765.49 -97.17) rotate(90)"/></svg>