<svg id="Camada_1" data-name="Camada 1" xmlns="http://www.w3.org/2000/svg" viewBox="0 0 927.13 598.32"><defs><style>.cls-1{fill:#464646;}.cls-2{fill:#63ab91;}</style></defs><rect class="cls-1" x="709.86" y="465.57" width="128.11" height="28.26" transform="translate(294.21 1253.61) rotate(-90)"/><rect class="cls-1" x="802.16" y="374.23" width="14.14" height="42.38" transform="translate(413.81 1204.65) rotate(-90)"/><path class="cls-1" d="M825.46,402.53c3.73,1.42,4.84,14.19,5,14.19,5.68,0,8,0,14.13,0a67.83,67.83,0,0,0-.71-8.71c-.55-3.63-1.46-8.62-2.53-10.75-1.47-2.95-3-5.6-6.34-7.65-2.57-1.58-5.74-1.21-9.54-1.21Z"/><path class="cls-1" d="M793.11,402.45c-3,0-4.22,3.16-4.71,6.58a51.59,51.59,0,0,0-.34,7.55c-6.14,0-7.09,0-14.31,0-4.28,0-11.67,0-14,0a84.09,84.09,0,0,1,.63-12.67c.87-6.57,7.24-10.78,9.76-11.9a46.29,46.29,0,0,1,19-3.63l3.94,0Z"/><rect class="cls-1" x="773.43" y="472.64" width="128.11" height="14.13" transform="translate(357.79 1317.19) rotate(-90)"/><rect class="cls-1" x="801.2" y="442.93" width="14.14" height="46.22" transform="translate(342.23 1274.32) rotate(-90)"/><rect class="cls-1" x="467.99" y="465.57" width="128.11" height="28.26" transform="translate(52.34 1011.74) rotate(-90)"/><rect class="cls-1" x="560.29" y="374.23" width="14.14" height="42.38" transform="translate(171.94 962.78) rotate(-90)"/><path class="cls-1" d="M583.59,402.53c3.73,1.42,4.84,14.19,5,14.19,5.68,0,8,0,14.13,0A67.83,67.83,0,0,0,602,408c-.55-3.63-1.46-8.62-2.53-10.75-1.47-2.95-3-5.6-6.33-7.65-2.58-1.58-5.75-1.21-9.54-1.21Z"/><path class="cls-1" d="M551.25,402.45c-3,0-4.23,3.16-4.71,6.58a52.19,52.19,0,0,0-.35,7.55c-6.14,0-7.08,0-14.31,0-4.28,0-11.67,0-14,0a85.45,85.45,0,0,1,.63-12.67c.87-6.57,7.24-10.78,9.76-11.9a46.37,46.37,0,0,1,19-3.63l3.94,0Z"/><rect class="cls-1" x="531.08" y="472.16" width="129.07" height="14.13" transform="translate(116.4 1074.84) rotate(-90)"/><rect class="cls-1" x="560.77" y="443.41" width="14.14" height="45.26" transform="translate(101.8 1033.89) rotate(-90)"/><rect class="cls-1" x="149.91" y="465.57" width="128.11" height="28.26" transform="translate(-265.74 693.67) rotate(-90)"/><rect class="cls-1" x="242.21" y="374.23" width="14.14" height="42.38" transform="translate(-146.13 644.71) rotate(-90)"/><path class="cls-1" d="M265.51,402.53c3.74,1.42,4.84,14.19,5,14.19,5.67,0,8,0,14.12,0a68.9,68.9,0,0,0-.7-8.71c-.55-3.63-1.47-8.62-2.53-10.75-1.48-2.95-3-5.6-6.34-7.65-2.58-1.58-5.74-1.21-9.54-1.21Z"/><path class="cls-1" d="M233.17,402.45c-2.95,0-4.22,3.16-4.71,6.58a53.8,53.8,0,0,0-.35,7.55c-6.14,0-7.08,0-14.31,0-4.27,0-11.66,0-14,0a85.45,85.45,0,0,1,.63-12.67c.87-6.57,7.25-10.78,9.77-11.9a46.29,46.29,0,0,1,19-3.63l3.94,0Z"/><rect class="cls-1" x="213.49" y="472.64" width="128.11" height="14.13" transform="translate(-202.16 757.24) rotate(-90)"/><rect class="cls-1" x="242.69" y="443.41" width="14.14" height="45.26" transform="translate(-216.28 715.81) rotate(-90)"/><rect class="cls-2" x="520.24" y="106.24" width="102.95" height="22.66" transform="translate(454.15 689.28) rotate(-90)"/><rect class="cls-2" x="594.37" y="33.11" width="11.34" height="33.98" transform="translate(549.93 650.14) rotate(-90)"/><path class="cls-2" d="M613,55.81c3,1.14,3.89,11.37,4,11.37,4.55,0,6.4,0,11.32,0a55.89,55.89,0,0,0-.57-7c-.43-2.91-1.17-6.91-2-8.62-1.18-2.36-2.39-4.49-5.08-6.14-2.07-1.26-4.61-1-7.65-1Z"/><path class="cls-2" d="M587.11,55.74c-2.37,0-3.38,2.54-3.77,5.28a41.28,41.28,0,0,0-.28,6c-4.92,0-5.68,0-11.48,0-3.42,0-9.35,0-11.18,0a67.74,67.74,0,0,1,.51-10.16c.69-5.27,5.8-8.65,7.82-9.54A37.3,37.3,0,0,1,584,44.46l3.16,0Z"/><rect class="cls-2" x="571.22" y="111.9" width="102.95" height="11.33" transform="translate(505.13 740.26) rotate(-90)"/><rect class="cls-2" x="593.87" y="89.24" width="11.34" height="34.98" transform="translate(492.8 706.27) rotate(-90)"/><rect class="cls-2" x="658.07" y="276.87" width="103.95" height="22.66" transform="translate(421.85 998.24) rotate(-90)"/><rect class="cls-2" x="732.7" y="204.24" width="11.34" height="33.98" transform="translate(517.13 959.6) rotate(-90)"/><path class="cls-2" d="M751.37,226.94c3,1.14,3.89,11.37,4,11.37h11.32a54.84,54.84,0,0,0-.56-7c-.44-2.91-1.18-6.91-2-8.62-1.18-2.36-2.39-4.49-5.08-6.14-2.07-1.26-4.61-1-7.65-1Z"/><path class="cls-2" d="M725.44,226.87c-2.36,0-3.38,2.54-3.77,5.28a41.28,41.28,0,0,0-.28,6c-4.92,0-5.68,0-11.48,0-3.42,0-9.35,0-11.18,0a67.79,67.79,0,0,1,.51-10.16c.69-5.26,5.8-8.65,7.82-9.54a37.15,37.15,0,0,1,15.22-2.91l3.16,0Z"/><rect class="cls-2" x="744.03" y="249.55" width="33.98" height="11.33" transform="translate(505.81 1016.23) rotate(-90)"/><rect class="cls-2" x="726.03" y="265.55" width="11.34" height="24.66" transform="translate(453.83 1009.58) rotate(-90)"/><path class="cls-2" d="M755.51,268.3c-1.16,3-11.4,3.8-11.4,3.9,0,4.55,0,6.4-.08,11.33a57.35,57.35,0,0,0,7-.52c2.91-.42,6.92-1.13,8.63-2,2.37-1.17,4.5-2.36,6.17-5,1.28-2.06,1-4.6,1-7.64Z"/><rect class="cls-2" x="732.7" y="317.51" width="11.34" height="33.98" transform="translate(1072.87 -403.87) rotate(90)"/><path class="cls-2" d="M751.37,328.8c3-1.14,3.89-11.37,4-11.38h11.32a55.05,55.05,0,0,1-.56,7c-.44,2.91-1.18,6.91-2,8.62-1.18,2.36-2.39,4.49-5.08,6.13-2.07,1.27-4.61,1-7.65,1Z"/><rect class="cls-2" x="743.53" y="295.36" width="34.98" height="11.33" transform="translate(1062.05 -460) rotate(90)"/><path class="cls-2" d="M755.51,287.44c-1.16-3-11.4-3.81-11.4-3.91,0-4.55,0-6.4-.08-11.32a55.13,55.13,0,0,1,7,.52c2.91.42,6.92,1.13,8.63,2,2.37,1.16,4.5,2.35,6.17,5,1.28,2.06,1,4.6,1,7.64Z"/><rect class="cls-2" x="194.88" y="277.37" width="102.95" height="22.66" transform="translate(-42.34 535.05) rotate(-90)"/><rect class="cls-2" x="269.01" y="204.24" width="11.34" height="33.98" transform="translate(53.44 495.91) rotate(-90)"/><path class="cls-2" d="M287.68,226.94c3,1.14,3.89,11.37,4,11.37H303a57,57,0,0,0-.56-7c-.44-2.91-1.18-6.91-2-8.62-1.18-2.36-2.39-4.49-5.08-6.14-2.07-1.26-4.61-1-7.65-1Z"/><path class="cls-2" d="M261.75,226.87c-2.36,0-3.38,2.54-3.77,5.28a41.28,41.28,0,0,0-.28,6c-4.92,0-5.68,0-11.48,0-3.42,0-9.35,0-11.18,0a67.79,67.79,0,0,1,.51-10.16c.69-5.26,5.8-8.65,7.82-9.54a37.12,37.12,0,0,1,15.22-2.91l3.16,0Z"/><rect class="cls-2" x="280.34" y="249.55" width="33.98" height="11.33" transform="translate(42.12 552.54) rotate(-90)"/><rect class="cls-2" x="263.34" y="266.55" width="11.34" height="22.66" transform="translate(-8.86 546.89) rotate(-90)"/><path class="cls-2" d="M291.82,268.3c-1.16,3-11.4,3.8-11.4,3.9,0,4.55,0,6.4-.08,11.33a57.35,57.35,0,0,0,7-.52c2.91-.42,6.92-1.13,8.63-2,2.37-1.17,4.5-2.36,6.17-5,1.28-2.06,1-4.6,1-7.64Z"/><rect class="cls-2" x="268.51" y="317.01" width="11.34" height="34.98" transform="translate(608.68 60.32) rotate(90)"/><path class="cls-2" d="M287.68,328.8c3-1.14,3.89-11.37,4-11.38H303a57.26,57.26,0,0,1-.56,7c-.44,2.91-1.18,6.91-2,8.62-1.18,2.36-2.39,4.49-5.08,6.13-2.07,1.27-4.61,1-7.65,1Z"/><rect class="cls-2" x="279.84" y="295.36" width="34.98" height="11.33" transform="translate(598.36 3.69) rotate(90)"/><path class="cls-2" d="M291.82,287.44c-1.16-3-11.4-3.81-11.4-3.91,0-4.55,0-6.4-.08-11.32a55.13,55.13,0,0,1,7,.52c2.91.42,6.92,1.13,8.63,2,2.37,1.16,4.5,2.35,6.17,5,1.28,2.06,1,4.6,1,7.64Z"/><rect class="cls-2" x="78.7" y="105.97" width="103.48" height="22.66" transform="translate(13.14 247.74) rotate(-90)"/><rect class="cls-2" x="153.09" y="33.11" width="11.34" height="33.98" transform="translate(108.66 208.87) rotate(-90)"/><path class="cls-2" d="M171.77,55.81c3,1.14,3.88,11.37,4,11.37,4.55,0,6.4,0,11.33,0a55.89,55.89,0,0,0-.57-7c-.44-2.91-1.17-6.91-2-8.62-1.18-2.36-2.38-4.49-5.08-6.14-2.07-1.26-4.6-1-7.65-1Z"/><path class="cls-2" d="M145.84,55.74c-2.37,0-3.39,2.54-3.78,5.28a42.85,42.85,0,0,0-.28,6c-4.92,0-5.68,0-11.47,0-3.43,0-9.35,0-11.18,0a67.46,67.46,0,0,1,.5-10.16c.7-5.27,5.81-8.65,7.83-9.54a37.3,37.3,0,0,1,15.22-2.92l3.16,0Z"/><rect class="cls-2" x="146.93" y="94.92" width="11.34" height="23.66" transform="translate(45.85 259.34) rotate(-90)"/><rect class="cls-2" x="153.09" y="146.38" width="11.34" height="33.98" transform="translate(322.13 4.61) rotate(90)"/><path class="cls-2" d="M171.77,157.67c3-1.14,3.88-11.38,4-11.38,4.55,0,6.4,0,11.33,0a56.12,56.12,0,0,1-.57,7c-.44,2.91-1.17,6.91-2,8.62-1.18,2.36-2.38,4.49-5.08,6.13-2.07,1.27-4.6,1-7.65,1Z"/><rect class="cls-2" x="537.49" y="276.87" width="103.95" height="22.66" transform="translate(301.27 877.66) rotate(-90)"/><rect class="cls-2" x="612.11" y="204.24" width="11.34" height="33.98" transform="translate(396.55 839.02) rotate(-90)"/><path class="cls-2" d="M630.79,226.94c3,1.14,3.88,11.37,4,11.37H646.1a55.89,55.89,0,0,0-.57-7c-.43-2.91-1.17-6.91-2-8.62-1.18-2.36-2.39-4.49-5.08-6.14-2.07-1.26-4.61-1-7.65-1Z"/><path class="cls-2" d="M604.86,226.87c-2.37,0-3.38,2.54-3.77,5.28a41.28,41.28,0,0,0-.28,6c-4.92,0-5.68,0-11.48,0-3.42,0-9.35,0-11.18,0a67.79,67.79,0,0,1,.51-10.16c.69-5.26,5.8-8.65,7.82-9.54a37.12,37.12,0,0,1,15.22-2.91l3.16,0Z"/><rect class="cls-2" x="605.45" y="265.55" width="11.34" height="24.66" transform="translate(333.25 889) rotate(-90)"/><rect class="cls-2" x="611.11" y="316.51" width="11.34" height="35.98" transform="translate(951.29 -282.28) rotate(90)"/><path class="cls-2" d="M630.79,328.8c3-1.14,3.88-11.37,4-11.38H646.1a56.12,56.12,0,0,1-.57,7c-.43,2.91-1.17,6.91-2,8.62-1.18,2.36-2.39,4.49-5.08,6.13-2.07,1.27-4.61,1-7.65,1Z"/><rect class="cls-2" x="113.32" y="277.37" width="102.95" height="22.66" transform="translate(-123.9 453.49) rotate(-90)"/><rect class="cls-2" x="187.44" y="204.24" width="11.34" height="33.98" transform="translate(-28.12 414.35) rotate(-90)"/><path class="cls-2" d="M206.12,226.94c3,1.14,3.88,11.37,4,11.37h11.33a55.89,55.89,0,0,0-.57-7c-.44-2.91-1.17-6.91-2-8.62-1.18-2.36-2.38-4.49-5.08-6.14-2.06-1.26-4.6-1-7.65-1Z"/><path class="cls-2" d="M180.19,226.87c-2.37,0-3.38,2.54-3.78,5.28a42.22,42.22,0,0,0-.27,6c-4.93,0-5.68,0-11.48,0-3.43,0-9.35,0-11.18,0a67.51,67.51,0,0,1,.5-10.16c.7-5.26,5.81-8.65,7.83-9.54A37.12,37.12,0,0,1,177,215.6l3.16,0Z"/><rect class="cls-2" x="181.28" y="266.05" width="11.34" height="23.66" transform="translate(-90.93 464.82) rotate(-90)"/><rect class="cls-2" x="186.94" y="317.01" width="11.34" height="34.98" transform="translate(527.11 141.89) rotate(90)"/><path class="cls-2" d="M206.12,328.8c3-1.14,3.88-11.37,4-11.38h11.33a56.12,56.12,0,0,1-.57,7c-.44,2.91-1.17,6.91-2,8.62-1.18,2.36-2.38,4.49-5.08,6.13-2.06,1.27-4.6,1-7.65,1Z"/><rect class="cls-2" x="607.12" y="84.58" width="102.95" height="22.66" transform="translate(562.69 754.51) rotate(-90)"/><rect class="cls-2" x="681.25" y="146.38" width="11.34" height="33.98" transform="translate(850.29 -523.55) rotate(90)"/><path class="cls-2" d="M699.92,157.67c3-1.14,3.89-11.38,4-11.38,4.55,0,6.4,0,11.32,0a57.26,57.26,0,0,1-.56,7c-.44,2.91-1.18,6.91-2,8.62-1.18,2.36-2.39,4.49-5.08,6.13-2.07,1.27-4.61,1-7.65,1Z"/><path class="cls-2" d="M674,157.74c-2.37,0-3.38-2.54-3.77-5.28a41.28,41.28,0,0,1-.28-6.05c-4.92,0-5.68,0-11.48,0l-11.18,0a67.86,67.86,0,0,0,.51,10.17c.69,5.26,5.8,8.64,7.82,9.54A37.12,37.12,0,0,0,670.83,169l3.16,0Z"/><rect class="cls-1" x="-11.85" y="465.09" width="129.07" height="28.26" transform="translate(-426.54 531.91) rotate(-90)"/><rect class="cls-1" x="66.8" y="388.36" width="14.14" height="14.13" transform="translate(-321.54 469.3) rotate(-90)"/><path class="cls-1" d="M71.89,402.45c-3,0-4.22,3.16-4.71,6.58a52.19,52.19,0,0,0-.35,7.55c-6.14,0-7.08,0-14.31,0-4.27,0-11.67,0-14,0a85.45,85.45,0,0,1,.63-12.67c.87-6.57,7.24-10.78,9.76-11.9a46.37,46.37,0,0,1,19-3.63l3.94,0Z"/><rect class="cls-1" x="101.65" y="465.57" width="128.11" height="28.26" transform="translate(-313.99 645.41) rotate(-90)"/><rect class="cls-1" x="137.44" y="388.36" width="14.14" height="14.13" transform="translate(-250.9 539.94) rotate(-90)"/><path class="cls-1" d="M146.51,402.45c3,0,4.22,3.16,4.71,6.58a51.59,51.59,0,0,1,.34,7.55c6.14,0,7.09,0,14.31,0,4.28,0,11.67,0,13.95,0a84.09,84.09,0,0,0-.63-12.67c-.87-6.57-7.24-10.78-9.76-11.9a46.29,46.29,0,0,0-19-3.63l-3.94,0Z"/><polygon class="cls-1" points="79.98 388.35 79.98 402.48 95.07 430.73 110.16 430.73 110.14 402.48 79.98 388.35"/><polygon class="cls-1" points="138.41 388.35 138.41 402.48 123.33 430.73 109.2 430.73 109.22 402.48 138.41 388.35"/><rect class="cls-1" x="101.64" y="423.18" width="15.1" height="28.26" transform="translate(-328.11 546.51) rotate(-90)"/><rect class="cls-1" x="567.92" y="458.99" width="141.28" height="28.26" transform="translate(165.44 1111.68) rotate(-90)"/><rect class="cls-1" x="645.62" y="451.93" width="155.41" height="28.26" transform="translate(257.27 1189.38) rotate(-90)"/><polygon class="cls-1" points="666.81 416.61 652.69 416.61 624.43 402.48 624.43 388.35 652.69 388.37 666.81 416.61"/><polygon class="cls-1" points="695.07 515.5 709.2 515.5 737.46 529.63 737.46 543.76 709.2 543.74 695.07 515.5"/><polygon class="cls-1" points="665.23 413.12 710.75 515.1 697.88 520.94 649.38 413.61 665.23 413.12"/><rect class="cls-2" x="407.33" y="101.07" width="113.28" height="22.66" transform="translate(351.57 576.37) rotate(-90)"/><rect class="cls-2" x="469.63" y="95.41" width="124.61" height="22.66" transform="translate(425.2 638.67) rotate(-90)"/><polygon class="cls-2" points="486.62 67.09 475.3 67.09 452.64 55.76 452.64 44.43 475.3 44.45 486.62 67.09"/><polygon class="cls-2" points="509.28 146.38 520.61 146.38 543.26 157.71 543.26 169.04 520.61 169.02 509.28 146.38"/><polygon class="cls-2" points="485.24 63.95 521.85 146.07 511.54 150.74 473.5 67.02 485.24 63.95"/><rect class="cls-2" x="340.38" y="95.35" width="81.72" height="22.66" transform="translate(274.56 487.91) rotate(-90)"/><rect class="cls-2" x="403.89" y="33.11" width="11.34" height="33.98" transform="translate(359.45 459.66) rotate(-90)"/><path class="cls-2" d="M422.57,55.81c3,1.14,3.88,11.37,4,11.37,4.55,0,6.4,0,11.32,0a52.8,52.8,0,0,0-.56-7c-.44-2.91-1.18-6.91-2-8.62-1.18-2.36-2.39-4.49-5.08-6.14-2.07-1.26-4.61-1-7.65-1Z"/><path class="cls-2" d="M396.63,55.74c-2.36,0-3.38,2.54-3.77,5.28a42.85,42.85,0,0,0-.28,6c-4.92,0-5.68,0-11.47,0-3.43,0-9.36,0-11.19,0a69.12,69.12,0,0,1,.51-10.16c.7-5.27,5.8-8.65,7.83-9.54a37.27,37.27,0,0,1,15.22-2.92l3.15,0Z"/><rect class="cls-2" x="403.89" y="146.38" width="11.34" height="33.98" transform="translate(572.93 -246.19) rotate(90)"/><path class="cls-2" d="M422.57,157.67c3-1.14,3.88-11.38,4-11.38,4.55,0,6.4,0,11.32,0a53,53,0,0,1-.56,7c-.44,2.91-1.18,6.91-2,8.62-1.18,2.36-2.39,4.49-5.08,6.13-2.07,1.27-4.61,1-7.65,1Z"/><path class="cls-2" d="M396.63,157.74c-2.36,0-3.38-2.54-3.77-5.28a42.85,42.85,0,0,1-.28-6.05c-4.92,0-5.68,0-11.47,0l-11.19,0a69.24,69.24,0,0,0,.51,10.17c.7,5.26,5.8,8.64,7.83,9.54A37.09,37.09,0,0,0,393.48,169l3.15,0Z"/><rect class="cls-2" x="391.01" y="101.96" width="82.36" height="11.31" transform="translate(324.57 539.81) rotate(-90)"/><rect class="cls-2" x="-0.8" y="106.74" width="101.95" height="22.66" transform="translate(-67.89 168.24) rotate(-90)"/><rect class="cls-2" x="72.82" y="33.11" width="11.34" height="33.98" transform="translate(28.39 128.6) rotate(-90)"/><path class="cls-2" d="M91.5,55.81c3,1.14,3.88,12.37,4,12.37,4.55,0,6.4,0,11.33,0a66.5,66.5,0,0,0-.57-8c-.44-2.91-1.17-6.91-2-8.62-1.18-2.36-2.38-4.49-5.08-6.14-2.07-1.26-4.6-1-7.65-1Z"/><path class="cls-2" d="M65.53,56c-2.37,0-3.4,2.61-3.8,5.41a44.51,44.51,0,0,0-.3,6.19c-4.92.05-5.68,0-11.48,0l-11.19.06a73.34,73.34,0,0,1,.54-10.4c.72-5.39,5.84-8.87,7.87-9.79a36.57,36.57,0,0,1,15.24-3h3.16Z"/><rect class="cls-2" x="84.16" y="78.42" width="33.98" height="11.33" transform="translate(17.07 185.23) rotate(-90)"/><rect class="cls-2" x="67.16" y="95.42" width="11.34" height="22.66" transform="translate(-33.92 179.57) rotate(-90)"/><path class="cls-2" d="M95.51,97.17c-1.16,3-11.4,3.8-11.41,3.9,0,4.55,0,6.4-.07,11.33a57.35,57.35,0,0,0,7-.52c2.91-.42,6.91-1.13,8.63-2,2.37-1.17,4.5-2.36,6.17-5,1.27-2.06,1-4.6,1-7.64Z"/><rect class="cls-1" x="255.63" y="465.39" width="128.11" height="28.26" transform="translate(-159.83 799.21) rotate(-90)"/><rect class="cls-1" x="347.94" y="374.05" width="14.14" height="42.38" transform="translate(-40.23 750.25) rotate(-90)"/><path class="cls-1" d="M371.23,402.35c3.74,1.42,4.84,14.19,5,14.19,5.67,0,8,0,14.13,0a72.25,72.25,0,0,0-.71-8.71c-.55-3.63-1.46-8.62-2.53-10.75-1.47-2.95-3-5.6-6.34-7.65-2.58-1.58-5.74-1.2-9.54-1.21Z"/><path class="cls-1" d="M338.89,402.27c-2.95,0-4.22,3.16-4.71,6.58a51.59,51.59,0,0,0-.34,7.55c-6.14,0-7.09,0-14.32,0-4.27,0-11.66,0-13.94,0a84.21,84.21,0,0,1,.63-12.68c.87-6.56,7.24-10.78,9.76-11.9a46.29,46.29,0,0,1,19-3.63l3.94,0Z"/><rect class="cls-1" x="362.07" y="429.59" width="42.38" height="14.13" transform="translate(-53.39 819.92) rotate(-90)"/><rect class="cls-1" x="340.87" y="450.79" width="14.14" height="30.18" transform="translate(-117.94 813.83) rotate(-90)"/><path class="cls-1" d="M376.39,453.94c-1.45,3.72-14.22,4.74-14.22,4.87,0,5.67-.05,8-.1,14.12a68,68,0,0,0,8.72-.65c3.63-.52,8.63-1.4,10.77-2.45,2.95-1.45,5.61-2.94,7.69-6.29,1.59-2.57,1.24-5.73,1.27-9.53Z"/><rect class="cls-1" x="348.13" y="501.36" width="70.67" height="14.13" transform="translate(-124.95 891.89) rotate(-90)"/><path class="cls-1" d="M376.39,477.89c-1.45-3.72-14.22-4.74-14.22-4.87,0-5.67-.05-8-.1-14.12a68,68,0,0,1,8.72.65c3.63.52,8.63,1.4,10.77,2.45,2.95,1.45,5.61,2.94,7.69,6.29,1.59,2.57,1.24,5.73,1.27,9.53Z"/><rect class="cls-2" x="161.42" y="106.09" width="102.95" height="22.66" transform="translate(95.47 330.31) rotate(-90)"/><rect class="cls-2" x="235.54" y="32.97" width="11.34" height="33.98" transform="translate(191.25 291.17) rotate(-90)"/><path class="cls-2" d="M254.22,55.66c3,1.14,3.88,11.38,4,11.38,4.55,0,6.4,0,11.33,0a56.12,56.12,0,0,0-.57-7c-.44-2.91-1.17-6.91-2-8.62-1.18-2.36-2.39-4.48-5.08-6.13-2.07-1.26-4.6-1-7.65-1Z"/><path class="cls-2" d="M228.29,55.59c-2.37,0-3.39,2.54-3.78,5.28a42.85,42.85,0,0,0-.28,6.05c-4.92,0-5.68,0-11.47,0l-11.19,0a69.3,69.3,0,0,1,.51-10.17c.7-5.26,5.81-8.64,7.83-9.53a37,37,0,0,1,15.22-2.92l3.16,0Z"/><rect class="cls-2" x="245.87" y="77.27" width="35.98" height="11.33" transform="translate(180.93 346.8) rotate(-90)"/><rect class="cls-2" x="229.88" y="95.27" width="11.34" height="22.66" transform="translate(128.95 342.15) rotate(-90)"/><path class="cls-2" d="M258.35,97c-1.16,3-11.4,3.81-11.4,3.91,0,4.55,0,6.4-.08,11.32a53.08,53.08,0,0,0,7-.52c2.91-.42,6.92-1.12,8.64-2,2.36-1.16,4.5-2.35,6.16-5,1.28-2.06,1-4.6,1-7.65Z"/><rect class="cls-2" x="235.7" y="135.04" width="56.67" height="11.33" transform="translate(123.32 404.74) rotate(-90)"/><path class="cls-2" d="M258.35,116.23c-1.16-3-11.4-3.8-11.4-3.91,0-4.54,0-6.4-.08-11.32a55.13,55.13,0,0,1,7,.52c2.91.42,6.92,1.13,8.64,2,2.36,1.16,4.5,2.36,6.16,5,1.28,2.06,1,4.6,1,7.64Z"/><polygon class="cls-2" points="285.26 65.61 285.14 92.65 307.79 92.65 307.92 65.61 285.26 65.61"/><rect class="cls-2" x="319.24" y="32.9" width="11.34" height="33.98" transform="translate(275.02 374.81) rotate(-90)"/><path class="cls-2" d="M337.92,55.6c3,1.14,3.88,11.37,4,11.37h11.33a55.89,55.89,0,0,0-.57-7c-.44-2.91-1.17-6.91-2-8.62-1.18-2.36-2.38-4.49-5.08-6.13-2.07-1.27-4.6-1-7.65-1Z"/><path class="cls-2" d="M312,55.53c-2.37,0-3.38,2.54-3.78,5.28a40.69,40.69,0,0,0-.27,6c-4.93,0-5.68,0-11.48,0-3.43,0-9.35,0-11.18,0a67.51,67.51,0,0,1,.5-10.16c.7-5.26,5.81-8.64,7.83-9.54a37.12,37.12,0,0,1,15.22-2.91l3.16,0Z"/><rect class="cls-2" x="313.55" y="95.27" width="11.34" height="22.66" transform="translate(212.62 425.82) rotate(-90)"/><rect class="cls-2" x="330.64" y="123.62" width="34.02" height="11.33" transform="translate(218.36 476.93) rotate(-90)"/><path class="cls-2" d="M341.89,116.17c-1.17-3-11.41-3.81-11.41-3.91,0-4.55,0-6.4-.07-11.33a57.35,57.35,0,0,1,7,.52c2.91.42,6.91,1.13,8.63,2,2.37,1.17,4.5,2.36,6.17,5,1.27,2.06,1,4.6,1,7.65Z"/><path class="cls-2" d="M311.91,101c-2.37,0-3.39-2.54-3.78-5.28a42.85,42.85,0,0,1-.28-6c-4.92,0-5.68,0-11.47,0l-11.19,0a69.24,69.24,0,0,0,.51,10.17c.7,5.26,5.8,8.64,7.83,9.54a37.09,37.09,0,0,0,15.22,2.91l3.16,0Z"/><path class="cls-2" d="M342,142.24c0,2.37-2.53,3.39-5.27,3.78a43.5,43.5,0,0,1-6.05.29c0,4.92,0,5.68,0,11.47,0,3.43,0,9.36,0,11.19a68,68,0,0,0,10.16-.52c5.26-.7,8.64-5.82,9.53-7.84a37.11,37.11,0,0,0,2.9-15.22l0-3.16Z"/><rect class="cls-2" x="308.34" y="145.75" width="22.75" height="23.83" transform="translate(477.38 -162.05) rotate(90)"/><path class="cls-2" d="M296.57,142.24c0,2.37,2.54,3.39,5.28,3.78a43.5,43.5,0,0,0,6,.29c0,4.92,0,5.68,0,11.47,0,3.43,0,9.36,0,11.19a68.19,68.19,0,0,1-10.17-.52c-5.26-.7-8.63-5.82-9.53-7.84a37.26,37.26,0,0,1-2.89-15.22l0-3.16Z"/><rect class="cls-2" x="315.4" y="238.04" width="26.71" height="22.66" transform="translate(79.39 578.12) rotate(-90)"/><rect class="cls-2" x="351.4" y="204.04" width="11.34" height="33.98" transform="translate(136.05 578.1) rotate(-90)"/><path class="cls-2" d="M370.08,226.73c3,1.14,3.88,11.37,4,11.37h11.32a55.89,55.89,0,0,0-.57-7c-.43-2.91-1.17-6.91-2-8.62-1.18-2.36-2.39-4.49-5.08-6.13-2.07-1.27-4.61-1-7.65-1Z"/><path class="cls-2" d="M344.15,226.66c-2.37,0-3.38,2.54-3.77,5.28a41.28,41.28,0,0,0-.28,6.05c-4.92,0-5.68,0-11.48,0H317.44a67.79,67.79,0,0,1,.51-10.16c.69-5.26,5.8-8.64,7.82-9.54A37.12,37.12,0,0,1,341,215.39l3.16,0Z"/><rect class="cls-2" x="346.21" y="265.9" width="11.34" height="23.66" transform="translate(74.15 629.61) rotate(-90)"/><rect class="cls-2" x="362.8" y="294.75" width="34.02" height="11.33" transform="translate(79.4 680.22) rotate(-90)"/><path class="cls-2" d="M374.05,287.3c-1.16-3-11.4-3.81-11.4-3.91,0-4.55,0-6.4-.08-11.32a53.08,53.08,0,0,1,7,.52c2.91.41,6.92,1.12,8.63,2,2.37,1.16,4.5,2.35,6.17,5,1.28,2.06,1,4.6,1,7.65Z"/><path class="cls-2" d="M344.07,272.1c-2.37,0-3.39-2.54-3.78-5.28a42.85,42.85,0,0,1-.28-6.05c-4.92,0-5.68,0-11.47,0H317.35a69.17,69.17,0,0,0,.51,10.16c.7,5.26,5.81,8.64,7.83,9.54a37.12,37.12,0,0,0,15.22,2.91l3.16,0Z"/><path class="cls-2" d="M374.12,313.37c0,2.37-2.53,3.39-5.27,3.78a41.88,41.88,0,0,1-6.05.29c0,4.92,0,5.68,0,11.47,0,3.43,0,9.36,0,11.19a68,68,0,0,0,10.16-.52c5.27-.7,8.64-5.82,9.53-7.84a37.11,37.11,0,0,0,2.9-15.22l0-3.16Z"/><rect class="cls-2" x="340.08" y="316.46" width="22.75" height="24.68" transform="translate(680.25 -22.65) rotate(90)"/><path class="cls-2" d="M328.74,313.37c0,2.37,2.53,3.39,5.27,3.78a41.88,41.88,0,0,0,6.05.29c0,4.92,0,5.68,0,11.47,0,3.43,0,9.36,0,11.19a68,68,0,0,1-10.16-.52c-5.27-.7-8.64-5.82-9.53-7.84a37.11,37.11,0,0,1-2.9-15.22l0-3.16Z"/><rect class="cls-2" x="459.61" y="266.51" width="124.67" height="22.66" transform="translate(244.11 799.78) rotate(-90)"/><rect class="cls-2" x="538.47" y="209.33" width="11.34" height="23.68" transform="translate(322.97 765.31) rotate(-90)"/><path class="cls-2" d="M552,226.87c3,1.14,3.88,11.38,4,11.38h11.33a56.12,56.12,0,0,0-.57-7c-.44-2.91-1.17-6.91-2-8.62-1.18-2.36-2.39-4.48-5.08-6.13-2.07-1.26-4.6-1-7.65-1Z"/><rect class="cls-2" x="494.1" y="209.33" width="11.34" height="23.68" transform="translate(278.6 720.94) rotate(-90)"/><path class="cls-2" d="M491.9,226.81c-3,1.14-3.88,11.37-4,11.37H476.6a52.8,52.8,0,0,1,.56-7c.44-2.91,1.18-6.91,2-8.62,1.18-2.36,2.39-4.49,5.08-6.14,2.07-1.26,4.61-1,7.65-1Z"/><rect class="cls-2" x="778.34" y="293.74" width="70.05" height="22.82" transform="translate(508.22 1118.51) rotate(-90)"/><rect class="cls-2" x="823.77" y="227.78" width="36.05" height="11.33" transform="translate(1075.24 -608.35) rotate(90)"/><rect class="cls-2" x="772.73" y="222.11" width="36.05" height="22.68" transform="translate(1024.2 -557.3) rotate(90)"/><rect class="cls-2" x="813.43" y="249.44" width="11.34" height="34.02" transform="translate(1085.56 -552.65) rotate(90)"/><path class="cls-2" d="M832.14,260.77c3-1.14,3.89-11.38,4-11.38,4.55,0,6.4,0,11.32,0a56.12,56.12,0,0,1-.57,7c-.43,2.91-1.17,6.91-2,8.62-1.18,2.36-2.39,4.48-5.08,6.13-2.07,1.26-4.61,1-7.65,1Z"/><path class="cls-2" d="M806.13,260.79c-2.36,0-3.38-2.54-3.77-5.28a41.28,41.28,0,0,1-.28-6c-4.92,0-5.68,0-11.48,0l-11.18,0a67.86,67.86,0,0,0,.51,10.17c.69,5.26,5.8,8.64,7.82,9.54A37.15,37.15,0,0,0,803,272.06l3.16,0Z"/><rect class="cls-2" x="67.26" y="323.14" width="11.34" height="22.73" transform="translate(407.43 261.57) rotate(90)"/><path class="cls-2" d="M80.24,328.8c3-1.14,3.88-11.37,4-11.38H95.55a56.12,56.12,0,0,1-.57,7c-.44,2.91-1.17,6.91-2,8.62-1.18,2.36-2.38,4.49-5.08,6.13-2.06,1.27-4.6,1-7.65,1Z"/><path class="cls-2" d="M65.63,328.86c-2.37,0-3.38-2.54-3.77-5.28a41.28,41.28,0,0,1-.28-6.05c-4.92,0-5.68,0-11.48,0l-11.18,0a67.74,67.74,0,0,0,.51,10.16c.69,5.27,5.8,8.65,7.82,9.54a37.13,37.13,0,0,0,15.22,2.92l3.16,0Z"/><rect class="cls-2" x="-1.31" y="255.63" width="103.08" height="22.66" transform="translate(317.2 216.73) rotate(90)"/><rect class="cls-2" x="72.53" y="283.99" width="46.38" height="22.66" transform="translate(391.03 199.6) rotate(90)"/><rect class="cls-2" x="112.68" y="323.2" width="11.34" height="22.61" transform="translate(452.85 216.15) rotate(90)"/><path class="cls-2" d="M125.68,328.8c3-1.14,3.88-11.37,4-11.38H141a56.12,56.12,0,0,1-.57,7c-.43,2.91-1.17,6.91-2,8.62-1.18,2.36-2.39,4.49-5.08,6.13-2.07,1.27-4.61,1-7.65,1Z"/><path class="cls-2" d="M111.11,328.86c-2.37,0-3.38-2.54-3.77-5.28a41.28,41.28,0,0,1-.28-6.05c-4.92,0-5.68,0-11.48,0l-11.18,0a67.74,67.74,0,0,0,.51,10.16c.69,5.27,5.8,8.65,7.82,9.54A37.13,37.13,0,0,0,108,340.13l3.16,0Z"/><rect class="cls-2" x="83.79" y="261.3" width="103.08" height="11.33" transform="translate(402.29 131.63) rotate(90)"/><rect class="cls-1" x="374.85" y="451.84" width="155.59" height="28.26" transform="translate(-13.32 918.6) rotate(-90)"/><rect class="cls-1" x="472.85" y="381.29" width="14.14" height="28.26" transform="translate(84.51 875.35) rotate(-90)"/><rect class="cls-1" x="416.83" y="380.81" width="14.14" height="29.23" transform="translate(28.48 819.32) rotate(-90)"/><rect class="cls-1" x="472.85" y="522.56" width="14.14" height="28.26" transform="translate(1016.61 56.76) rotate(90)"/><rect class="cls-1" x="416.83" y="522.07" width="14.14" height="29.23" transform="translate(960.59 112.79) rotate(90)"/><rect class="cls-2" x="372.65" y="266.47" width="125.13" height="22.73" transform="translate(157.39 713.05) rotate(-90)"/><rect class="cls-2" x="451.47" y="209.73" width="11.38" height="22.73" transform="translate(236.07 678.26) rotate(-90)"/><rect class="cls-2" x="406.41" y="209.34" width="11.38" height="23.51" transform="translate(191.01 633.2) rotate(-90)"/><rect class="cls-2" x="451.47" y="323.35" width="11.38" height="22.73" transform="translate(791.87 -122.45) rotate(90)"/><rect class="cls-2" x="406.41" y="322.96" width="11.38" height="23.51" transform="translate(746.81 -77.39) rotate(90)"/></svg>