<svg id="Camada_1" data-name="Camada 1" xmlns="http://www.w3.org/2000/svg" viewBox="0 0 927.13 598.32"><defs><style>.cls-1{fill:#464646;}.cls-2{fill:#63ab91;}</style></defs><rect class="cls-1" x="743.58" y="467.24" width="133.47" height="29.44" transform="translate(328.36 1292.28) rotate(-90)"/><rect class="cls-1" x="839.75" y="372.07" width="14.74" height="44.16" transform="translate(452.96 1241.27) rotate(-90)"/><path class="cls-1" d="M864,401.56c3.89,1.48,5,14.78,5.17,14.78h14.72a72.28,72.28,0,0,0-.74-9.07c-.57-3.78-1.52-9-2.63-11.21-1.54-3.06-3.11-5.82-6.6-8-2.69-1.65-6-1.26-9.94-1.26Z"/><path class="cls-1" d="M830.32,401.47c-3.07,0-4.4,3.3-4.9,6.86a52.47,52.47,0,0,0-.36,7.86c-6.4,0-7.39,0-14.92,0l-14.53,0a89.23,89.23,0,0,1,.66-13.2c.91-6.84,7.55-11.24,10.17-12.4a48.39,48.39,0,0,1,19.78-3.79l4.1,0Z"/><rect class="cls-1" x="809.82" y="474.6" width="133.47" height="14.72" transform="translate(394.59 1358.51) rotate(-90)"/><rect class="cls-1" x="838.75" y="443.65" width="14.74" height="48.16" transform="translate(378.38 1313.85) rotate(-90)"/><rect class="cls-1" x="491.59" y="467.24" width="133.47" height="29.44" transform="translate(76.37 1040.29) rotate(-90)"/><rect class="cls-1" x="587.76" y="372.07" width="14.74" height="44.16" transform="translate(200.97 989.28) rotate(-90)"/><path class="cls-1" d="M612,401.56c3.89,1.48,5,14.78,5.17,14.78h14.72a72.28,72.28,0,0,0-.74-9.07c-.57-3.78-1.52-9-2.63-11.21-1.54-3.06-3.1-5.82-6.6-8-2.69-1.65-6-1.26-9.94-1.26Z"/><path class="cls-1" d="M578.33,401.47c-3.07,0-4.39,3.3-4.9,6.86a54,54,0,0,0-.36,7.86c-6.4,0-7.39,0-14.92,0l-14.53,0a89.23,89.23,0,0,1,.66-13.2c.91-6.84,7.55-11.24,10.17-12.4a48.39,48.39,0,0,1,19.78-3.79l4.1,0Z"/><rect class="cls-1" x="557.33" y="474.1" width="134.47" height="14.72" transform="translate(143.1 1106.02) rotate(-90)"/><rect class="cls-1" x="588.26" y="444.15" width="14.74" height="47.16" transform="translate(127.89 1063.36) rotate(-90)"/><rect class="cls-1" x="160.2" y="467.24" width="133.47" height="29.44" transform="translate(-255.02 708.9) rotate(-90)"/><rect class="cls-1" x="256.37" y="372.07" width="14.74" height="44.16" transform="translate(-130.41 657.89) rotate(-90)"/><path class="cls-1" d="M280.64,401.56c3.89,1.48,5.05,14.78,5.18,14.78h14.71a71.23,71.23,0,0,0-.73-9.07c-.57-3.78-1.53-9-2.64-11.21-1.53-3.06-3.1-5.82-6.6-8-2.69-1.65-6-1.26-9.94-1.26Z"/><path class="cls-1" d="M247,401.47c-3.08,0-4.4,3.3-4.91,6.86a54,54,0,0,0-.36,7.86c-6.4,0-7.38,0-14.91,0l-14.53,0a89,89,0,0,1,.65-13.2c.91-6.84,7.55-11.24,10.17-12.4a48.39,48.39,0,0,1,19.78-3.79l4.11,0Z"/><rect class="cls-1" x="226.44" y="474.6" width="133.47" height="14.72" transform="translate(-188.78 775.14) rotate(-90)"/><rect class="cls-1" x="256.87" y="444.15" width="14.74" height="47.16" transform="translate(-203.49 731.97) rotate(-90)"/><rect class="cls-2" x="525.87" y="104.67" width="102.95" height="22.66" transform="translate(461.36 693.34) rotate(-90)"/><rect class="cls-2" x="600" y="31.54" width="11.34" height="33.98" transform="translate(557.14 654.2) rotate(-90)"/><path class="cls-2" d="M618.68,54.23c3,1.14,3.88,11.38,4,11.38,4.55,0,6.4,0,11.33,0a56.12,56.12,0,0,0-.57-7c-.44-2.9-1.17-6.9-2-8.62-1.18-2.35-2.39-4.48-5.08-6.13-2.07-1.26-4.6-1-7.65-1Z"/><path class="cls-2" d="M592.75,54.17c-2.37,0-3.39,2.54-3.78,5.27a43,43,0,0,0-.28,6.06c-4.92,0-5.68,0-11.47,0-3.43,0-9.36,0-11.19,0a69.12,69.12,0,0,1,.51-10.16c.7-5.27,5.81-8.65,7.83-9.54a37.3,37.3,0,0,1,15.22-2.92l3.16,0Z"/><rect class="cls-2" x="576.85" y="110.33" width="102.95" height="11.33" transform="translate(512.33 744.32) rotate(-90)"/><rect class="cls-2" x="599.5" y="87.67" width="11.34" height="34.98" transform="translate(500.01 710.33) rotate(-90)"/><rect class="cls-2" x="696.71" y="275.3" width="103.95" height="22.66" transform="translate(462.06 1035.31) rotate(-90)"/><rect class="cls-2" x="771.33" y="202.67" width="11.34" height="33.98" transform="translate(557.34 996.66) rotate(-90)"/><path class="cls-2" d="M790,225.37c3,1.14,3.88,11.37,4,11.37,4.55,0,6.4,0,11.33,0a55.89,55.89,0,0,0-.57-7c-.44-2.91-1.17-6.91-2-8.62-1.18-2.36-2.39-4.49-5.08-6.14-2.07-1.26-4.6-1-7.65-1Z"/><path class="cls-2" d="M764.08,225.3c-2.37,0-3.39,2.54-3.78,5.28a42.85,42.85,0,0,0-.28,6c-4.92,0-5.68,0-11.47,0-3.43,0-9.35,0-11.19,0a69.12,69.12,0,0,1,.51-10.16c.7-5.27,5.81-8.65,7.83-9.54A37.3,37.3,0,0,1,760.92,214l3.16,0Z"/><rect class="cls-2" x="782.66" y="247.98" width="33.98" height="11.33" transform="translate(546.02 1053.3) rotate(-90)"/><rect class="cls-2" x="764.67" y="263.98" width="11.34" height="24.66" transform="translate(494.03 1046.64) rotate(-90)"/><path class="cls-2" d="M794.14,266.73c-1.16,3-11.4,3.8-11.4,3.9,0,4.55,0,6.4-.08,11.33a57.35,57.35,0,0,0,7-.52c2.91-.42,6.92-1.13,8.64-2,2.36-1.17,4.5-2.36,6.16-5,1.28-2.06,1-4.6,1-7.64Z"/><rect class="cls-2" x="771.33" y="315.94" width="11.34" height="33.98" transform="translate(1109.93 -444.07) rotate(90)"/><path class="cls-2" d="M790,327.23c3-1.14,3.88-11.38,4-11.38h11.33a56.12,56.12,0,0,1-.57,7c-.44,2.91-1.17,6.91-2,8.62-1.18,2.36-2.39,4.48-5.08,6.13-2.07,1.27-4.6,1-7.65,1Z"/><rect class="cls-2" x="782.16" y="293.79" width="34.98" height="11.33" transform="translate(1099.11 -500.2) rotate(90)"/><path class="cls-2" d="M794.14,285.87c-1.16-3-11.4-3.81-11.4-3.91,0-4.55,0-6.4-.08-11.32a55.13,55.13,0,0,1,7,.52c2.91.42,6.92,1.12,8.64,2,2.36,1.16,4.5,2.35,6.16,5,1.28,2.06,1,4.59,1,7.64Z"/><rect class="cls-2" x="207.52" y="275.8" width="102.95" height="22.66" transform="translate(-28.13 546.12) rotate(-90)"/><rect class="cls-2" x="281.64" y="202.67" width="11.34" height="33.98" transform="translate(67.65 506.97) rotate(-90)"/><path class="cls-2" d="M300.32,225.37c3,1.14,3.88,11.37,4,11.37,4.55,0,6.4,0,11.33,0a55.89,55.89,0,0,0-.57-7c-.44-2.91-1.17-6.91-2-8.62-1.18-2.36-2.39-4.49-5.08-6.14-2.07-1.26-4.6-1-7.65-1Z"/><path class="cls-2" d="M274.39,225.3c-2.37,0-3.39,2.54-3.78,5.28a42.85,42.85,0,0,0-.28,6c-4.92,0-5.68,0-11.47,0-3.43,0-9.35,0-11.19,0a69.12,69.12,0,0,1,.51-10.16c.7-5.27,5.81-8.65,7.83-9.54A37.3,37.3,0,0,1,271.23,214l3.16,0Z"/><rect class="cls-2" x="292.97" y="247.98" width="33.98" height="11.33" transform="translate(56.32 563.61) rotate(-90)"/><rect class="cls-2" x="275.98" y="264.98" width="11.34" height="22.66" transform="translate(5.34 557.95) rotate(-90)"/><path class="cls-2" d="M304.45,266.73c-1.16,3-11.4,3.8-11.4,3.9,0,4.55,0,6.4-.08,11.33a57.35,57.35,0,0,0,7-.52c2.91-.42,6.92-1.13,8.64-2,2.36-1.17,4.5-2.36,6.16-5,1.28-2.06,1-4.6,1-7.64Z"/><rect class="cls-2" x="281.14" y="315.44" width="11.34" height="34.98" transform="translate(619.74 46.12) rotate(90)"/><path class="cls-2" d="M300.32,327.23c3-1.14,3.88-11.38,4-11.38h11.33a56.12,56.12,0,0,1-.57,7c-.44,2.91-1.17,6.91-2,8.62-1.18,2.36-2.39,4.48-5.08,6.13-2.07,1.27-4.6,1-7.65,1Z"/><rect class="cls-2" x="292.47" y="293.79" width="34.98" height="11.33" transform="translate(609.42 -10.51) rotate(90)"/><path class="cls-2" d="M304.45,285.87c-1.16-3-11.4-3.81-11.4-3.91,0-4.55,0-6.4-.08-11.32a55.13,55.13,0,0,1,7,.52c2.91.42,6.92,1.12,8.64,2,2.36,1.16,4.5,2.35,6.16,5,1.28,2.06,1,4.59,1,7.64Z"/><rect class="cls-2" x="84.33" y="104.4" width="103.48" height="22.66" transform="translate(20.35 251.8) rotate(-90)"/><rect class="cls-2" x="158.73" y="31.54" width="11.34" height="33.98" transform="translate(115.86 212.93) rotate(-90)"/><path class="cls-2" d="M177.4,54.23c3,1.14,3.89,11.38,4,11.38,4.55,0,6.4,0,11.32,0a56.12,56.12,0,0,0-.57-7c-.43-2.9-1.17-6.9-2-8.62-1.18-2.35-2.39-4.48-5.08-6.13-2.07-1.26-4.61-1-7.65-1Z"/><path class="cls-2" d="M151.47,54.17c-2.37,0-3.38,2.54-3.77,5.27a41.44,41.44,0,0,0-.28,6.06c-4.92,0-5.68,0-11.48,0-3.42,0-9.35,0-11.18,0a67.74,67.74,0,0,1,.51-10.16c.69-5.27,5.8-8.65,7.82-9.54a37.3,37.3,0,0,1,15.22-2.92l3.16,0Z"/><rect class="cls-2" x="152.56" y="93.34" width="11.34" height="23.66" transform="translate(53.06 263.4) rotate(-90)"/><rect class="cls-2" x="158.73" y="144.81" width="11.34" height="33.98" transform="translate(326.19 -2.6) rotate(90)"/><path class="cls-2" d="M177.4,156.1c3-1.14,3.89-11.38,4-11.38h11.32a56.12,56.12,0,0,1-.57,7c-.43,2.91-1.17,6.91-2,8.62-1.18,2.36-2.39,4.48-5.08,6.13-2.07,1.26-4.61,1-7.65,1Z"/><rect class="cls-2" x="565.12" y="275.3" width="103.95" height="22.66" transform="translate(330.47 903.72) rotate(-90)"/><rect class="cls-2" x="639.75" y="202.67" width="11.34" height="33.98" transform="translate(425.75 865.08) rotate(-90)"/><path class="cls-2" d="M658.43,225.37c3,1.14,3.88,11.37,4,11.37,4.55,0,6.4,0,11.33,0a55.89,55.89,0,0,0-.57-7c-.44-2.91-1.18-6.91-2-8.62-1.18-2.36-2.39-4.49-5.08-6.14-2.07-1.26-4.61-1-7.65-1Z"/><path class="cls-2" d="M632.5,225.3c-2.37,0-3.39,2.54-3.78,5.28a42.85,42.85,0,0,0-.28,6c-4.92,0-5.68,0-11.47,0-3.43,0-9.36,0-11.19,0a69.12,69.12,0,0,1,.51-10.16c.7-5.27,5.81-8.65,7.83-9.54A37.27,37.27,0,0,1,629.34,214l3.16,0Z"/><rect class="cls-2" x="633.08" y="263.98" width="11.34" height="24.66" transform="translate(362.45 915.06) rotate(-90)"/><rect class="cls-2" x="638.75" y="314.94" width="11.34" height="35.98" transform="translate(977.35 -311.49) rotate(90)"/><path class="cls-2" d="M658.43,327.23c3-1.14,3.88-11.38,4-11.38h11.33a56.12,56.12,0,0,1-.57,7c-.44,2.91-1.18,6.91-2,8.62-1.18,2.36-2.39,4.48-5.08,6.13-2.07,1.27-4.61,1-7.65,1Z"/><rect class="cls-2" x="121.95" y="275.8" width="102.95" height="22.66" transform="translate(-113.7 460.55) rotate(-90)"/><rect class="cls-2" x="196.08" y="202.67" width="11.34" height="33.98" transform="translate(-17.92 421.41) rotate(-90)"/><path class="cls-2" d="M214.76,225.37c3,1.14,3.88,11.37,4,11.37,4.55,0,6.4,0,11.32,0a52.8,52.8,0,0,0-.56-7c-.44-2.91-1.18-6.91-2-8.62-1.18-2.36-2.39-4.49-5.08-6.14-2.07-1.26-4.61-1-7.65-1Z"/><path class="cls-2" d="M188.82,225.3c-2.36,0-3.38,2.54-3.77,5.28a41.28,41.28,0,0,0-.28,6c-4.92,0-5.68,0-11.48,0-3.42,0-9.35,0-11.18,0a67.74,67.74,0,0,1,.51-10.16c.7-5.27,5.8-8.65,7.83-9.54A37.25,37.25,0,0,1,185.66,214l3.16,0Z"/><rect class="cls-2" x="189.91" y="264.48" width="11.34" height="23.66" transform="translate(-80.72 471.89) rotate(-90)"/><rect class="cls-2" x="195.58" y="315.44" width="11.34" height="34.98" transform="translate(534.18 131.68) rotate(90)"/><path class="cls-2" d="M214.76,327.23c3-1.14,3.88-11.38,4-11.38h11.32a53,53,0,0,1-.56,7c-.44,2.91-1.18,6.91-2,8.62-1.18,2.36-2.39,4.48-5.08,6.13-2.07,1.27-4.61,1-7.65,1Z"/><rect class="cls-2" x="612.75" y="83.01" width="102.95" height="22.66" transform="translate(569.89 758.57) rotate(-90)"/><rect class="cls-2" x="686.88" y="144.81" width="11.34" height="33.98" transform="translate(854.35 -530.75) rotate(90)"/><path class="cls-2" d="M705.56,156.1c3-1.14,3.88-11.38,4-11.38h11.33a56.12,56.12,0,0,1-.57,7c-.44,2.91-1.17,6.91-2,8.62-1.18,2.36-2.39,4.48-5.08,6.13-2.07,1.26-4.6,1-7.65,1Z"/><path class="cls-2" d="M679.63,156.17c-2.37,0-3.39-2.54-3.78-5.28a42.85,42.85,0,0,1-.28-6c-4.92,0-5.68,0-11.47,0l-11.19,0a69.3,69.3,0,0,0,.51,10.17c.7,5.26,5.81,8.64,7.83,9.53a37,37,0,0,0,15.22,2.92l3.16,0Z"/><rect class="cls-1" x="-8.33" y="466.74" width="134.47" height="29.44" transform="translate(-422.55 540.37) rotate(-90)"/><rect class="cls-1" x="73.62" y="386.79" width="14.74" height="14.72" transform="translate(-313.16 475.14) rotate(-90)"/><path class="cls-1" d="M78.92,401.47c-3.08,0-4.4,3.3-4.91,6.86a54,54,0,0,0-.36,7.86c-6.4,0-7.38,0-14.91,0l-14.53,0a87.59,87.59,0,0,1,.65-13.2c.91-6.84,7.55-11.24,10.17-12.4a48.39,48.39,0,0,1,19.78-3.79l4.11,0Z"/><rect class="cls-1" x="109.93" y="467.24" width="133.47" height="29.44" transform="translate(-305.3 658.62) rotate(-90)"/><rect class="cls-1" x="147.22" y="386.79" width="14.74" height="14.72" transform="translate(-239.57 548.74) rotate(-90)"/><path class="cls-1" d="M156.66,401.47c3.07,0,4.4,3.3,4.9,6.86a54.57,54.57,0,0,1,.37,7.86c6.39,0,7.38,0,14.91,0l14.53,0a89.23,89.23,0,0,0-.66-13.2c-.91-6.84-7.54-11.24-10.17-12.4a48.39,48.39,0,0,0-19.78-3.79l-4.1,0Z"/><polygon class="cls-1" points="87.35 386.79 87.35 401.5 103.07 430.94 118.79 430.94 118.76 401.5 87.35 386.79"/><polygon class="cls-1" points="148.22 386.79 148.22 401.5 132.51 430.94 117.79 430.94 117.81 401.5 148.22 386.79"/><rect class="cls-1" x="109.92" y="423.07" width="15.74" height="29.44" transform="translate(-320.01 555.58) rotate(-90)"/><rect class="cls-1" x="595.7" y="460.38" width="147.19" height="29.44" transform="translate(194.2 1144.4) rotate(-90)"/><rect class="cls-1" x="676.66" y="453.02" width="161.91" height="29.44" transform="translate(289.87 1225.36) rotate(-90)"/><polygon class="cls-1" points="698.74 416.22 684.02 416.22 654.58 401.5 654.58 386.79 684.02 386.81 698.74 416.22"/><polygon class="cls-1" points="728.18 519.26 742.9 519.26 772.33 533.98 772.33 548.7 742.9 548.67 728.18 519.26"/><polygon class="cls-1" points="697.09 412.6 744.51 518.84 731.11 524.92 680.58 413.11 697.09 412.6"/><rect class="cls-2" x="412.96" y="99.5" width="113.28" height="22.66" transform="translate(358.77 580.43) rotate(-90)"/><rect class="cls-2" x="475.27" y="93.84" width="124.61" height="22.66" transform="translate(432.4 642.73) rotate(-90)"/><polygon class="cls-2" points="492.26 65.52 480.93 65.52 458.27 54.19 458.27 42.86 480.93 42.88 492.26 65.52"/><polygon class="cls-2" points="514.91 144.81 526.24 144.81 548.9 156.14 548.9 167.47 526.24 167.45 514.91 144.81"/><polygon class="cls-2" points="490.88 62.38 527.49 144.5 517.17 149.17 479.13 65.45 490.88 62.38"/><rect class="cls-2" x="346.01" y="93.77" width="81.72" height="22.66" transform="translate(281.77 491.97) rotate(-90)"/><rect class="cls-2" x="409.52" y="31.54" width="11.34" height="33.98" transform="translate(366.66 463.73) rotate(-90)"/><path class="cls-2" d="M428.2,54.23c3,1.14,3.88,11.38,4,11.38,4.55,0,6.4,0,11.33,0a56.12,56.12,0,0,0-.57-7c-.44-2.9-1.17-6.9-2-8.62-1.18-2.35-2.38-4.48-5.08-6.13-2.07-1.26-4.6-1-7.65-1Z"/><path class="cls-2" d="M402.27,54.17c-2.37,0-3.39,2.54-3.78,5.27a43,43,0,0,0-.28,6.06c-4.92,0-5.68,0-11.47,0-3.43,0-9.35,0-11.18,0a67.46,67.46,0,0,1,.5-10.16c.7-5.27,5.81-8.65,7.83-9.54a37.3,37.3,0,0,1,15.22-2.92l3.16,0Z"/><rect class="cls-2" x="409.52" y="144.81" width="11.34" height="33.98" transform="translate(576.99 -253.39) rotate(90)"/><path class="cls-2" d="M428.2,156.1c3-1.14,3.88-11.38,4-11.38h11.33a56.12,56.12,0,0,1-.57,7c-.44,2.91-1.17,6.91-2,8.62-1.18,2.36-2.38,4.48-5.08,6.13-2.07,1.26-4.6,1-7.65,1Z"/><path class="cls-2" d="M402.27,156.17c-2.37,0-3.39-2.54-3.78-5.28a42.85,42.85,0,0,1-.28-6c-4.92,0-5.68,0-11.47,0l-11.18,0a67.63,67.63,0,0,0,.5,10.17c.7,5.26,5.81,8.64,7.83,9.53a37,37,0,0,0,15.22,2.92l3.16,0Z"/><rect class="cls-2" x="396.65" y="100.39" width="82.36" height="11.31" transform="translate(331.78 543.88) rotate(-90)"/><rect class="cls-2" x="4.83" y="105.17" width="101.95" height="22.66" transform="translate(-60.69 172.3) rotate(-90)"/><rect class="cls-2" x="78.45" y="31.54" width="11.34" height="33.98" transform="translate(35.59 132.66) rotate(-90)"/><path class="cls-2" d="M97.13,54.23c3,1.14,3.88,12.38,4,12.38,4.55,0,6.4,0,11.32,0a66.73,66.73,0,0,0-.57-8c-.43-2.9-1.17-6.9-2-8.62-1.18-2.35-2.39-4.48-5.08-6.13-2.07-1.26-4.61-1-7.65-1Z"/><path class="cls-2" d="M71.16,54.43c-2.37,0-3.39,2.61-3.79,5.41a42.89,42.89,0,0,0-.3,6.19c-4.93,0-5.69,0-11.48,0l-11.19.06a70.43,70.43,0,0,1,.54-10.4c.71-5.39,5.84-8.87,7.86-9.79A36.78,36.78,0,0,1,68,42.9l3.16,0Z"/><rect class="cls-2" x="89.79" y="76.85" width="33.98" height="11.33" transform="translate(24.27 189.29) rotate(-90)"/><rect class="cls-2" x="72.79" y="93.84" width="11.34" height="22.66" transform="translate(-26.71 183.63) rotate(-90)"/><path class="cls-2" d="M101.14,95.6c-1.16,3-11.4,3.8-11.4,3.9,0,4.55,0,6.4-.08,11.33a57.35,57.35,0,0,0,7-.52c2.91-.42,6.92-1.13,8.63-2,2.37-1.17,4.51-2.36,6.17-5,1.28-2.06,1-4.6,1-7.65Z"/><rect class="cls-1" x="270.35" y="467.05" width="133.47" height="29.44" transform="translate(-144.69 818.86) rotate(-90)"/><rect class="cls-1" x="366.52" y="371.89" width="14.74" height="44.16" transform="translate(-20.08 767.85) rotate(-90)"/><path class="cls-1" d="M390.79,401.37c3.89,1.49,5,14.78,5.17,14.78h14.72a72.41,72.41,0,0,0-.74-9.07c-.57-3.78-1.52-9-2.63-11.2-1.54-3.07-3.1-5.83-6.6-8-2.69-1.64-6-1.25-9.94-1.26Z"/><path class="cls-1" d="M357.09,401.29c-3.07,0-4.39,3.3-4.9,6.85a54.12,54.12,0,0,0-.36,7.87c-6.4,0-7.38,0-14.92,0-4.45,0-12.15,0-14.53,0a89.36,89.36,0,0,1,.66-13.21c.91-6.84,7.55-11.23,10.17-12.39A48.23,48.23,0,0,1,353,386.64l4.1,0Z"/><rect class="cls-1" x="381.25" y="429.76" width="44.16" height="14.72" transform="translate(-33.79 840.44) rotate(-90)"/><rect class="cls-1" x="359.16" y="451.84" width="14.74" height="31.44" transform="translate(-101.04 834.09) rotate(-90)"/><path class="cls-1" d="M396.16,455.12c-1.51,3.88-14.81,4.94-14.82,5.07,0,5.91,0,8.32-.09,14.72a70.6,70.6,0,0,0,9.08-.68c3.78-.54,9-1.46,11.21-2.56,3.08-1.51,5.85-3.06,8-6.54,1.66-2.68,1.29-6,1.32-9.93Z"/><rect class="cls-1" x="366.72" y="504.52" width="73.63" height="14.72" transform="translate(-108.35 915.42) rotate(-90)"/><path class="cls-1" d="M396.16,480.08c-1.51-3.89-14.81-4.95-14.82-5.08,0-5.91,0-8.32-.09-14.72a75,75,0,0,1,9.08.68c3.78.55,9,1.46,11.21,2.56,3.08,1.51,5.85,3.06,8,6.55,1.66,2.67,1.29,6,1.32,9.93Z"/><rect class="cls-2" x="167.05" y="104.52" width="102.95" height="22.66" transform="translate(102.67 334.37) rotate(-90)"/><rect class="cls-2" x="241.17" y="31.4" width="11.34" height="33.98" transform="translate(198.45 295.23) rotate(-90)"/><path class="cls-2" d="M259.85,54.09c3,1.14,3.88,11.38,4,11.38,4.55,0,6.4,0,11.33,0a56.12,56.12,0,0,0-.57-7c-.44-2.91-1.17-6.91-2-8.62-1.17-2.36-2.38-4.48-5.08-6.13-2.06-1.27-4.6-1-7.65-1Z"/><path class="cls-2" d="M233.92,54c-2.37,0-3.38,2.54-3.78,5.28a42.22,42.22,0,0,0-.27,6c-4.93,0-5.68,0-11.48,0l-11.18,0a67.58,67.58,0,0,1,.5-10.17c.7-5.26,5.81-8.64,7.83-9.54a37.12,37.12,0,0,1,15.22-2.91l3.16,0Z"/><rect class="cls-2" x="251.51" y="75.7" width="35.98" height="11.33" transform="translate(188.13 350.87) rotate(-90)"/><rect class="cls-2" x="235.51" y="93.7" width="11.34" height="22.66" transform="translate(136.15 346.21) rotate(-90)"/><path class="cls-2" d="M264,95.45c-1.16,3-11.4,3.81-11.41,3.91,0,4.55,0,6.4-.07,11.32a55.13,55.13,0,0,0,7-.52c2.91-.42,6.91-1.12,8.63-2,2.37-1.16,4.5-2.35,6.17-5,1.28-2.06,1-4.59,1-7.64Z"/><rect class="cls-2" x="241.33" y="133.47" width="56.67" height="11.33" transform="translate(130.53 408.8) rotate(-90)"/><path class="cls-2" d="M264,114.66c-1.16-3-11.4-3.81-11.41-3.91,0-4.55,0-6.4-.07-11.32a55.13,55.13,0,0,1,7,.52c2.91.42,6.91,1.12,8.63,2,2.37,1.16,4.5,2.35,6.17,5,1.28,2.06,1,4.59,1,7.64Z"/><polygon class="cls-2" points="290.9 64.03 290.77 91.08 313.43 91.08 313.56 64.03 290.9 64.03"/><rect class="cls-2" x="324.88" y="31.33" width="11.34" height="33.98" transform="translate(282.22 378.87) rotate(-90)"/><path class="cls-2" d="M343.55,54c3,1.14,3.89,11.37,4,11.37,4.55,0,6.4,0,11.32,0a54.84,54.84,0,0,0-.56-7c-.44-2.91-1.18-6.91-2-8.62-1.18-2.36-2.39-4.49-5.08-6.14-2.07-1.26-4.61-1-7.65-1Z"/><path class="cls-2" d="M317.62,54c-2.36,0-3.38,2.54-3.77,5.28a41.28,41.28,0,0,0-.28,6.05c-4.92,0-5.68,0-11.48,0-3.42,0-9.35,0-11.18,0a67.74,67.74,0,0,1,.51-10.16c.69-5.26,5.8-8.65,7.82-9.54a37.12,37.12,0,0,1,15.22-2.91l3.16,0Z"/><rect class="cls-2" x="319.18" y="93.7" width="11.34" height="22.66" transform="translate(219.82 429.88) rotate(-90)"/><rect class="cls-2" x="336.27" y="122.05" width="34.02" height="11.33" transform="translate(225.57 480.99) rotate(-90)"/><path class="cls-2" d="M347.52,114.59c-1.16-3-11.4-3.8-11.4-3.9,0-4.55,0-6.4-.08-11.33a57.35,57.35,0,0,1,7,.52c2.91.42,6.92,1.13,8.63,2,2.37,1.17,4.5,2.36,6.17,5,1.28,2.06,1,4.6,1,7.64Z"/><path class="cls-2" d="M317.54,99.4c-2.37,0-3.39-2.54-3.78-5.28a42.85,42.85,0,0,1-.28-6.05c-4.92,0-5.68,0-11.47,0l-11.18,0a67.58,67.58,0,0,0,.5,10.17c.7,5.26,5.81,8.64,7.83,9.53a37,37,0,0,0,15.22,2.92l3.16,0Z"/><path class="cls-2" d="M347.6,140.67c0,2.37-2.54,3.39-5.28,3.78a43.5,43.5,0,0,1-6.05.29c0,4.92,0,5.68,0,11.47,0,3.43,0,9.35,0,11.18a66.58,66.58,0,0,0,10.17-.51c5.26-.71,8.63-5.82,9.52-7.84a37.11,37.11,0,0,0,2.9-15.22l0-3.16Z"/><rect class="cls-2" x="313.97" y="144.18" width="22.75" height="23.83" transform="translate(481.44 -169.25) rotate(90)"/><path class="cls-2" d="M302.21,140.67c0,2.37,2.53,3.39,5.27,3.78a43.5,43.5,0,0,0,6,.29c0,4.92,0,5.68,0,11.47,0,3.43,0,9.35,0,11.18a66.41,66.41,0,0,1-10.16-.51c-5.26-.71-8.64-5.82-9.53-7.84a37.11,37.11,0,0,1-2.9-15.22l0-3.16Z"/><rect class="cls-2" x="332.04" y="236.47" width="26.71" height="22.66" transform="translate(97.59 593.18) rotate(-90)"/><rect class="cls-2" x="368.04" y="202.46" width="11.34" height="33.98" transform="translate(154.25 593.16) rotate(-90)"/><path class="cls-2" d="M386.72,225.16c3,1.14,3.88,11.37,4,11.37H402a55.89,55.89,0,0,0-.57-7c-.44-2.91-1.18-6.91-2-8.62-1.18-2.36-2.39-4.49-5.08-6.14-2.07-1.26-4.61-1-7.65-1Z"/><path class="cls-2" d="M360.79,225.09c-2.37,0-3.39,2.54-3.78,5.28a42.85,42.85,0,0,0-.28,6c-4.92,0-5.68,0-11.47,0-3.43,0-9.36,0-11.19,0a69.17,69.17,0,0,1,.51-10.16c.7-5.26,5.81-8.64,7.83-9.54a37.09,37.09,0,0,1,15.22-2.91l3.16,0Z"/><rect class="cls-2" x="362.84" y="264.33" width="11.34" height="23.66" transform="translate(92.35 644.67) rotate(-90)"/><rect class="cls-2" x="379.43" y="293.18" width="34.02" height="11.33" transform="translate(97.6 695.28) rotate(-90)"/><path class="cls-2" d="M390.68,285.72c-1.16-3-11.4-3.8-11.4-3.9,0-4.55,0-6.4-.08-11.33a57.35,57.35,0,0,1,7,.52c2.91.42,6.92,1.13,8.64,2,2.36,1.17,4.5,2.36,6.16,5,1.28,2.06,1,4.6,1,7.65Z"/><path class="cls-2" d="M360.7,270.53c-2.37,0-3.38-2.54-3.78-5.28a42.22,42.22,0,0,1-.27-6.05c-4.93,0-5.68,0-11.48,0l-11.18,0a67.58,67.58,0,0,0,.5,10.17c.7,5.26,5.81,8.64,7.83,9.54a37.12,37.12,0,0,0,15.22,2.91l3.16,0Z"/><path class="cls-2" d="M390.76,311.8c0,2.37-2.54,3.39-5.28,3.78a43.5,43.5,0,0,1-6.05.29c0,4.92,0,5.68,0,11.47,0,3.43,0,9.35,0,11.19a68.14,68.14,0,0,0,10.17-.52c5.26-.71,8.63-5.82,9.53-7.84A37.27,37.27,0,0,0,402,315l0-3.16Z"/><rect class="cls-2" x="356.71" y="314.89" width="22.75" height="24.68" transform="translate(695.31 -40.86) rotate(90)"/><path class="cls-2" d="M345.37,311.8c0,2.37,2.54,3.39,5.27,3.78a43.5,43.5,0,0,0,6.05.29c0,4.92,0,5.68,0,11.47,0,3.43,0,9.35,0,11.19a68.07,68.07,0,0,1-10.16-.52c-5.26-.71-8.64-5.82-9.53-7.84a37.11,37.11,0,0,1-2.9-15.22l0-3.16Z"/><rect class="cls-2" x="482.24" y="264.94" width="124.67" height="22.66" transform="translate(268.31 820.84) rotate(-90)"/><rect class="cls-2" x="561.1" y="207.76" width="11.34" height="23.68" transform="translate(347.17 786.37) rotate(-90)"/><path class="cls-2" d="M574.64,225.3c3,1.14,3.88,11.38,4,11.38,4.55,0,6.4,0,11.33,0a56.12,56.12,0,0,0-.57-7c-.44-2.91-1.17-6.91-2-8.62-1.18-2.36-2.38-4.49-5.08-6.13-2.06-1.27-4.6-1-7.65-1Z"/><rect class="cls-2" x="516.74" y="207.76" width="11.34" height="23.68" transform="translate(302.81 742.01) rotate(-90)"/><path class="cls-2" d="M514.54,225.24c-3,1.14-3.88,11.37-4,11.37-4.54,0-6.39,0-11.32,0a55.89,55.89,0,0,1,.57-7c.44-2.91,1.17-6.91,2-8.62,1.17-2.36,2.38-4.49,5.08-6.14,2.06-1.26,4.6-1,7.64-1Z"/><rect class="cls-2" x="816.98" y="292.17" width="70.05" height="22.82" transform="translate(548.42 1155.58) rotate(-90)"/><rect class="cls-2" x="862.4" y="226.21" width="36.05" height="11.33" transform="translate(1112.3 -648.55) rotate(90)"/><rect class="cls-2" x="811.36" y="220.53" width="36.05" height="22.68" transform="translate(1061.26 -597.51) rotate(90)"/><rect class="cls-2" x="852.07" y="247.87" width="11.34" height="34.02" transform="translate(1122.62 -592.85) rotate(90)"/><path class="cls-2" d="M870.78,259.2c3-1.14,3.88-11.38,4-11.38,4.55,0,6.4,0,11.33,0a56.12,56.12,0,0,1-.57,7c-.44,2.9-1.17,6.91-2,8.62-1.18,2.36-2.39,4.48-5.08,6.13-2.07,1.26-4.6,1-7.65,1Z"/><path class="cls-2" d="M844.77,259.22c-2.37,0-3.39-2.54-3.78-5.28a42.85,42.85,0,0,1-.28-6.05c-4.92,0-5.68,0-11.47,0l-11.18,0a67.58,67.58,0,0,0,.5,10.17c.7,5.26,5.81,8.64,7.83,9.53a37,37,0,0,0,15.22,2.92l3.16,0Z"/><rect class="cls-2" x="72.89" y="321.57" width="11.34" height="22.73" transform="translate(411.49 254.37) rotate(90)"/><path class="cls-2" d="M85.88,327.23c3-1.14,3.88-11.38,4-11.38h11.32a53,53,0,0,1-.56,7c-.44,2.91-1.18,6.91-2,8.62-1.18,2.36-2.39,4.48-5.08,6.13-2.07,1.27-4.61,1-7.65,1Z"/><path class="cls-2" d="M71.27,327.28c-2.37,0-3.39-2.54-3.78-5.27a43,43,0,0,1-.28-6.06c-4.92,0-5.68,0-11.47,0-3.43,0-9.36,0-11.19,0a69.12,69.12,0,0,0,.51,10.16c.7,5.27,5.81,8.65,7.83,9.54a37.27,37.27,0,0,0,15.22,2.92l3.16,0Z"/><rect class="cls-2" x="4.33" y="254.06" width="103.08" height="22.66" transform="translate(321.26 209.52) rotate(90)"/><rect class="cls-2" x="78.16" y="282.42" width="46.38" height="22.66" transform="translate(395.09 192.39) rotate(90)"/><rect class="cls-2" x="118.31" y="321.62" width="11.34" height="22.61" transform="translate(456.91 208.95) rotate(90)"/><path class="cls-2" d="M131.32,327.23c3-1.14,3.88-11.38,4-11.38h11.33a56.12,56.12,0,0,1-.57,7c-.44,2.91-1.18,6.91-2,8.62-1.18,2.36-2.39,4.48-5.08,6.13-2.07,1.27-4.6,1-7.65,1Z"/><path class="cls-2" d="M116.75,327.28c-2.37,0-3.39-2.54-3.78-5.27a43,43,0,0,1-.28-6.06c-4.92,0-5.68,0-11.47,0-3.43,0-9.36,0-11.19,0a69.12,69.12,0,0,0,.51,10.16c.7,5.27,5.81,8.65,7.83,9.54a37.3,37.3,0,0,0,15.22,2.92l3.16,0Z"/><rect class="cls-2" x="89.42" y="259.73" width="103.08" height="11.33" transform="translate(406.36 124.43) rotate(90)"/><rect class="cls-1" x="394.55" y="452.93" width="162.1" height="29.44" transform="translate(7.95 943.25) rotate(-90)"/><rect class="cls-1" x="496.66" y="379.43" width="14.74" height="29.44" transform="translate(109.88 898.18) rotate(-90)"/><rect class="cls-1" x="438.29" y="378.93" width="14.74" height="30.45" transform="translate(51.51 839.81) rotate(-90)"/><rect class="cls-1" x="496.66" y="526.61" width="14.74" height="29.44" transform="translate(1045.36 37.3) rotate(90)"/><rect class="cls-1" x="438.29" y="526.1" width="14.74" height="30.45" transform="translate(986.99 95.67) rotate(90)"/><rect class="cls-2" x="392.28" y="264.89" width="125.13" height="22.73" transform="translate(178.59 731.11) rotate(-90)"/><rect class="cls-2" x="471.11" y="208.16" width="11.38" height="22.73" transform="translate(257.27 696.32) rotate(-90)"/><rect class="cls-2" x="426.05" y="207.77" width="11.38" height="23.51" transform="translate(212.21 651.26) rotate(-90)"/><rect class="cls-2" x="471.11" y="321.77" width="11.38" height="22.73" transform="translate(809.93 -143.66) rotate(90)"/><rect class="cls-2" x="426.05" y="321.38" width="11.38" height="23.51" transform="translate(764.87 -98.6) rotate(90)"/></svg>