<svg id="Camada_1" data-name="Camada 1" xmlns="http://www.w3.org/2000/svg" viewBox="0 0 240 240"><defs><style>.cls-1{fill:#f8f7f7;}</style></defs><path class="cls-1" d="M188.59,188.67H160.18V186c0-14.91.12-29.83-.1-44.75a53.77,53.77,0,0,0-1.85-12.45c-1.37-5.34-5.85-8.53-11.4-8.74a29,29,0,0,0-5.74.22c-6.25,1-10,4.94-11.32,10.92a66.07,66.07,0,0,0-1.39,13c-.17,13.91-.06,27.83-.06,41.75v2.67H99.8V97.18h27.36v11.49l.45.18c.64-.87,1.26-1.75,1.92-2.59a29.42,29.42,0,0,1,18.6-11,41.75,41.75,0,0,1,20.48,1.49c10.69,3.51,16.21,11.6,18.15,22.13a120.77,120.77,0,0,1,1.85,19.91c.26,16,.08,32,.08,48C188.69,187.32,188.63,187.85,188.59,188.67Z"/><path class="cls-1" d="M53.33,97.1H81.88v91.49H53.33Z"/><path class="cls-1" d="M84,68C84,77.12,76.52,84.63,67.65,84.48a16.65,16.65,0,0,1-16.4-16.76A16.42,16.42,0,0,1,67.92,51.33,16.22,16.22,0,0,1,84,68Z"/></svg>