<svg id="Camada_1" data-name="Camada 1" xmlns="http://www.w3.org/2000/svg" viewBox="0 0 240 240"><defs><style>.cls-1{fill:#464646;}</style></defs><path class="cls-1" d="M115.19,45.21c3.61.88,7.21,1.78,10.82,2.63,3.91.92,7.85,1.74,11.75,2.7,7,1.7,10.78,8.12,9.1,15.33-.3,1.26-.09,1.63,1.19,1.91Q158,70,167.87,72.34a12.24,12.24,0,0,1,9.44,15c-.55,2.6-1.18,5.19-1.76,7.79-.7,3.13-1.71,3.81-4.94,3.18q-.47,4.64-.91,9.25-1,10.06-1.93,20.14l-1.56,16.23-2,20.72c-.6,6.38-1.27,12.75-1.79,19.14a11.46,11.46,0,0,1-11.35,10.7H83.74a11.54,11.54,0,0,1-11.41-10.67c-.78-8.9-1.69-17.78-2.54-26.67-.72-7.63-1.4-15.27-2.13-22.9s-1.49-15.27-2.23-22.9c-.51-5.31-1-10.62-1.51-15.94-.22-2.49,1-3.77,3.63-3.77,5.88,0,11.76,0,17.64,0h55.24l0-.27-7.59-1.8-54-12.35C74.29,76.15,69.67,75.08,65,74c-2.52-.58-3.38-1.93-2.8-4.47.63-2.69,1.24-5.38,1.89-8.06,1.78-7.33,8.11-11.18,15.49-9.47l20.92,4.83c.16-.68.31-1.33.48-2a12.23,12.23,0,0,1,9.32-9.39,1.82,1.82,0,0,0,.48-.28Zm49.53,52.51H70.11c.25,2.71.5,5.32.74,7.92q.93,9.85,1.86,19.71c.64,6.76,1.3,13.53,1.94,20.29.53,5.5,1,11,1.57,16.52.64,6.71,1.36,13.42,1.9,20.14.35,4.27,2.41,6.36,6.68,6.37h65.6c3.48,0,5.85-2,6.17-5.3q1.35-13.77,2.63-27.54c.82-8.69,1.6-17.39,2.43-26.09C162.64,119.11,163.68,108.48,164.72,97.72Zm-96.22-29L170.18,92.1c.54-2.32,1.1-4.52,1.52-6.74a6,6,0,0,0-.13-2.45c-.74-3.08-3-4.4-5.9-5.06Q140,72,114.4,66.12c-12.28-2.81-24.54-5.65-36.82-8.43A6.26,6.26,0,0,0,70,62.35C69.46,64.41,69,66.49,68.5,68.74Zm38-10.5,34.22,7.84c.19-.85.34-1.5.48-2.16a6.24,6.24,0,0,0-4.65-7.58q-10.87-2.6-21.8-5C110.17,50.32,106.58,53.33,106.53,58.24Z"/><path class="cls-1" d="M120.39,143.18V178.9c0,2.24-1.09,3.59-2.89,3.64a2.79,2.79,0,0,1-2.9-2.16,9,9,0,0,1-.18-2q0-35.27,0-70.55c0-2.73,1-4.18,3-4.2s3,1.48,3,4.15Z"/><path class="cls-1" d="M145.53,109.49q-.71,13.91-1.39,27.79c-.33,6.69-.64,13.38-1,20.08-.36,7.37-.72,14.74-1.12,22.11-.11,2.05-1.3,3.16-3.09,3.07s-2.84-1.39-2.75-3.43c.29-6.79.63-13.58,1-20.37q.51-10.55,1-21.09.69-13.82,1.36-27.64c.06-1.12,0-2.24.13-3.35a3.06,3.06,0,0,1,3.08-3,3,3,0,0,1,2.82,3.26c0,.88-.09,1.75-.14,2.62Z"/><path class="cls-1" d="M89.2,108.92v-2.18a3,3,0,0,1,2.8-3.13,3.05,3.05,0,0,1,3.06,3c.19,3.49.38,7,.55,10.47q1,20.58,2,41.17.51,10.62.94,21.24a2.77,2.77,0,0,1-2.41,3,2.89,2.89,0,0,1-3.23-1.91,4.94,4.94,0,0,1-.17-1.28q-1-21.11-2.07-42.19Q90,123,89.24,108.92Z"/></svg>