<svg id="Camada_1" data-name="Camada 1" xmlns="http://www.w3.org/2000/svg" viewBox="0 0 240 240"><defs><style>.cls-1{fill:#f8f7f7;}</style></defs><path class="cls-1" d="M192.1,114.22v10.4c-.1.41-.22.81-.28,1.22-.41,2.87-.62,5.78-1.24,8.6A71.84,71.84,0,0,1,87.27,182.83a3.39,3.39,0,0,0-2.19-.27C75.49,185,65.93,187.51,56.36,190c-2.45.65-4.89,1.38-7.33,2.08h-.85c3.24-11.8,6.45-23.59,9.73-35.37a3.63,3.63,0,0,0-.36-3A70.34,70.34,0,0,1,50,105.94c3.53-18.78,13.34-33.68,29-44.55s33.06-15.17,51.92-12.54A68.24,68.24,0,0,1,172,69.9a70.69,70.69,0,0,1,19.26,38.81ZM65.53,174.75c.57-.11.88-.16,1.19-.24,6.6-1.71,13.2-3.4,19.78-5.16a3.28,3.28,0,0,1,2.74.4c18,10.57,36.67,11.92,55.74,3.46a58.52,58.52,0,0,0,34.71-60.62A55.61,55.61,0,0,0,167.38,82.8C152.44,64.66,133.17,57.29,110,60.94c-14.68,2.32-26.7,9.72-35.93,21.38a58.65,58.65,0,0,0-12.91,42.17,57,57,0,0,0,9.55,27.23,3.09,3.09,0,0,1,.4,2.84C69.25,161.21,67.43,167.87,65.53,174.75Z"/><path class="cls-1" d="M139.64,153.5c-4.42.1-8.07-1.34-11.81-2.55-13.62-4.4-23.89-13.24-32.62-24.23-3.73-4.7-7.34-9.45-9.53-15.12-3.38-8.71-1.61-16.39,4.61-23.19a7.09,7.09,0,0,1,5.3-2.18,28.07,28.07,0,0,1,4.2.2c1.37.17,2,1.31,2.49,2.43,1.48,3.43,2.9,6.88,4.34,10.33.51,1.21,1,2.44,1.54,3.61a3.31,3.31,0,0,1-.24,3.58c-1.31,1.82-2.63,3.64-4,5.36-1.63,2-1.71,2.49-.37,4.71a48.43,48.43,0,0,0,23.84,20.47c2,.82,2.93.64,4.29-1,1.69-2.06,3.38-4.12,5-6.22,1.19-1.5,1.92-1.79,3.74-1.25a9.3,9.3,0,0,1,1.19.42c4.45,2,8.88,4,13.34,5.88a2.92,2.92,0,0,1,2,3.05c-.23,5.34-2,9.81-6.9,12.66A19.75,19.75,0,0,1,139.64,153.5Z"/></svg>